<svg xmlns="http://www.w3.org/2000/svg" xmlns:xlink="http://www.w3.org/1999/xlink" width="300" zoomAndPan="magnify" viewBox="0 0 224.87999 225" height="300" preserveAspectRatio="xMidYMid meet" version="1.0"><defs><clipPath id="f8d7b26e00"><path d="M 0 0.0585938 L 224.761719 0.0585938 L 224.761719 224.9375 L 0 224.9375 Z M 0 0.0585938 " clip-rule="nonzero"/></clipPath><clipPath id="af626cd153"><path d="M 112.441406 0.0585938 C 50.339844 0.0585938 0 50.402344 0 112.5 C 0 174.597656 50.339844 224.941406 112.441406 224.941406 C 174.539062 224.941406 224.878906 174.597656 224.878906 112.5 C 224.878906 50.402344 174.539062 0.0585938 112.441406 0.0585938 Z M 112.441406 0.0585938 " clip-rule="nonzero"/></clipPath><clipPath id="3918729aae"><path d="M 51 52.644531 L 173.820312 52.644531 L 173.820312 170 L 51 170 Z M 51 52.644531 " clip-rule="nonzero"/></clipPath></defs><g clip-path="url(#f8d7b26e00)"><g clip-path="url(#af626cd153)"><path fill="#27ae60" d="M 0 0.0585938 L 224.878906 0.0585938 L 224.878906 224.941406 L 0 224.941406 Z M 0 0.0585938 " fill-opacity="1" fill-rule="nonzero"/></g></g><g clip-path="url(#3918729aae)"><path fill="#ffffff" d="M 110.3125 81.746094 C 109.234375 80.738281 109.210938 79.398438 109.210938 79.179688 C 109.28125 78.535156 109.066406 77.886719 108.613281 77.429688 C 108.203125 77 107.628906 76.757812 107.101562 76.785156 C 106.574219 76.808594 106.070312 77.070312 105.710938 77.503906 C 105.328125 77.957031 105.136719 78.582031 105.207031 79.15625 C 105.472656 82.871094 107.414062 85.101562 110.984375 85.796875 L 110.984375 86.78125 C 110.984375 87.761719 111.777344 88.554688 112.757812 88.554688 C 113.742188 88.554688 114.53125 87.761719 114.53125 86.78125 L 114.53125 85.820312 C 116.140625 85.558594 117.433594 84.863281 118.417969 83.761719 C 119.589844 82.417969 120.167969 80.835938 120.167969 79.039062 C 120.167969 77.289062 119.6875 75.898438 118.753906 74.867188 C 117.9375 73.980469 116.570312 73.308594 114.558594 72.78125 L 114.558594 67.003906 C 114.722656 67.097656 114.867188 67.195312 114.988281 67.3125 C 115.613281 67.960938 115.660156 68.753906 115.660156 69.039062 C 115.753906 70.09375 116.59375 70.886719 117.695312 70.886719 C 118.726562 70.886719 119.589844 70.070312 119.6875 68.921875 C 119.351562 65.804688 117.601562 63.886719 114.558594 63.359375 L 114.558594 62.398438 C 114.558594 61.417969 113.765625 60.625 112.78125 60.625 C 111.800781 60.625 111.007812 61.417969 111.007812 62.398438 L 111.007812 63.382812 C 109.546875 63.671875 108.324219 64.269531 107.414062 65.179688 C 106.261719 66.308594 105.664062 67.816406 105.664062 69.664062 C 105.664062 72.683594 107.460938 74.699219 111.007812 75.65625 L 111.007812 82.175781 C 110.722656 82.058594 110.480469 81.914062 110.3125 81.746094 Z M 109.640625 69.449219 C 109.640625 68.25 110.074219 67.457031 110.984375 67.003906 L 110.984375 71.75 C 110.695312 71.605469 110.457031 71.460938 110.265625 71.269531 C 109.859375 70.933594 109.640625 70.3125 109.640625 69.449219 Z M 116.164062 79.179688 C 116.164062 80.761719 115.636719 81.746094 114.558594 82.226562 L 114.558594 76.617188 C 115.179688 76.878906 115.492188 77.121094 115.660156 77.3125 C 115.996094 77.71875 116.164062 78.34375 116.164062 79.179688 Z M 110.554688 96.441406 C 111.082031 96.488281 111.585938 96.539062 112.085938 96.539062 C 112.28125 96.5625 112.472656 96.5625 112.664062 96.5625 C 112.902344 96.5625 113.117188 96.5625 113.238281 96.539062 C 119.566406 96.371094 125.535156 93.492188 129.585938 88.601562 C 132.847656 84.671875 134.621094 79.707031 134.621094 74.601562 C 134.621094 73.570312 134.550781 72.566406 134.429688 71.652344 C 134.214844 70.09375 133.855469 68.5625 133.328125 67.097656 C 131.074219 60.9375 126.253906 56.117188 120.070312 53.9375 C 118.609375 53.410156 117.074219 53.050781 115.515625 52.835938 C 114.582031 52.714844 113.597656 52.644531 112.664062 52.644531 C 100.554688 52.644531 90.703125 62.496094 90.703125 74.601562 C 90.726562 85.988281 99.261719 95.386719 110.554688 96.441406 Z M 112.6875 56.40625 C 113.476562 56.40625 114.269531 56.453125 115.058594 56.550781 C 116.332031 56.71875 117.601562 57.03125 118.824219 57.460938 C 123.929688 59.285156 127.933594 63.261719 129.804688 68.371094 C 130.234375 69.566406 130.546875 70.816406 130.714844 72.132812 C 130.835938 72.898438 130.882812 73.714844 130.882812 74.578125 C 130.882812 78.796875 129.394531 82.921875 126.710938 86.179688 C 123.355469 90.234375 118.417969 92.628906 113.046875 92.75 C 112.925781 92.75 112.808594 92.75 112.6875 92.75 C 112.566406 92.75 112.445312 92.75 112.328125 92.75 L 112.160156 92.75 C 111.75 92.75 111.367188 92.726562 110.9375 92.675781 C 101.5625 91.789062 94.492188 84.023438 94.492188 74.578125 C 94.492188 64.558594 102.667969 56.40625 112.6875 56.40625 Z M 173.3125 124.347656 L 156.460938 89.464844 C 155.238281 86.972656 152.242188 85.917969 149.75 87.140625 L 141.40625 91.167969 C 138.914062 92.367188 137.859375 95.386719 139.082031 97.878906 L 140.949219 101.761719 L 139.34375 102.578125 C 138.289062 103.105469 137.089844 103.25 135.941406 102.960938 L 126.113281 100.421875 C 122.417969 99.460938 118.488281 100.15625 115.347656 102.265625 L 113.382812 103.585938 L 108.347656 101.09375 C 106.167969 100.011719 103.769531 99.679688 101.394531 100.085938 L 91.589844 101.761719 C 90.894531 101.882812 90.175781 101.789062 89.527344 101.476562 L 85.117188 99.292969 L 86.292969 96.847656 C 86.867188 95.648438 86.964844 94.285156 86.507812 93.011719 C 86.078125 91.742188 85.167969 90.710938 83.945312 90.136719 L 75.625 86.109375 C 73.132812 84.886719 70.109375 85.941406 68.914062 88.433594 L 52.058594 123.289062 C 50.859375 125.785156 51.890625 128.804688 54.410156 130.027344 L 62.726562 134.054688 C 63.421875 134.390625 64.191406 134.558594 64.910156 134.558594 C 66.777344 134.558594 68.578125 133.503906 69.441406 131.730469 L 70.277344 129.980469 L 73.609375 131.464844 C 74.761719 131.96875 75.527344 133.046875 75.648438 134.292969 L 75.9375 137.292969 L 73.371094 141.703125 C 72.722656 142.804688 72.386719 144.074219 72.386719 145.394531 C 72.386719 148.03125 73.804688 150.476562 76.054688 151.769531 C 77.207031 152.441406 78.476562 152.753906 79.722656 152.753906 C 79.820312 152.753906 79.890625 152.730469 79.988281 152.730469 C 79.84375 153.304688 79.773438 153.878906 79.773438 154.457031 C 79.773438 157.09375 81.1875 159.539062 83.464844 160.832031 C 84.613281 161.503906 85.886719 161.816406 87.132812 161.816406 C 88.59375 161.816406 90.03125 161.359375 91.253906 160.542969 C 91.878906 161.933594 92.933594 163.132812 94.277344 163.925781 C 95.425781 164.597656 96.695312 164.90625 97.945312 164.90625 C 98.855469 164.90625 99.742188 164.738281 100.582031 164.40625 C 101.058594 166.320312 102.28125 167.976562 104.03125 168.984375 C 105.183594 169.65625 106.453125 169.964844 107.699219 169.964844 C 110.242188 169.964844 112.734375 168.648438 114.078125 166.296875 L 115.921875 163.109375 L 121.222656 166.179688 C 122.277344 166.800781 123.449219 167.089844 124.601562 167.089844 C 126.949219 167.089844 129.253906 165.867188 130.5 163.710938 C 131.121094 162.605469 131.410156 161.40625 131.410156 160.234375 C 134.140625 160.710938 137.019531 159.488281 138.480469 156.972656 L 138.648438 156.710938 C 139.367188 155.460938 139.679688 154.046875 139.511719 152.632812 C 140.0625 152.632812 140.613281 152.539062 141.167969 152.394531 C 142.917969 151.914062 144.378906 150.789062 145.289062 149.230469 C 146.152344 147.71875 146.417969 145.96875 146.03125 144.265625 C 146.25 144.242188 146.464844 144.195312 146.679688 144.125 C 148.429688 143.644531 149.894531 142.515625 150.804688 140.957031 C 151.953125 138.992188 151.976562 136.667969 151.089844 134.726562 L 155.863281 132.640625 L 155.933594 132.808594 C 156.796875 134.605469 158.59375 135.636719 160.464844 135.636719 C 161.207031 135.636719 161.949219 135.46875 162.644531 135.132812 L 170.964844 131.105469 C 172.164062 130.53125 173.074219 129.5 173.53125 128.230469 C 173.984375 126.933594 173.890625 125.570312 173.3125 124.347656 Z M 64.359375 130.652344 L 56.039062 126.625 C 55.414062 126.3125 55.152344 125.570312 55.464844 124.945312 L 72.316406 90.066406 C 72.53125 89.609375 72.988281 89.34375 73.441406 89.34375 C 73.636719 89.34375 73.828125 89.394531 73.996094 89.464844 L 82.3125 93.492188 C 82.625 93.636719 82.839844 93.898438 82.960938 94.210938 C 83.082031 94.523438 83.054688 94.882812 82.914062 95.171875 L 80.921875 99.292969 L 80.777344 99.582031 L 66.035156 130.050781 C 65.75 130.675781 64.980469 130.9375 64.359375 130.652344 Z M 77.949219 148.488281 C 76.847656 147.863281 76.152344 146.664062 76.152344 145.371094 C 76.152344 144.722656 76.320312 144.125 76.632812 143.570312 L 79.628906 138.394531 L 81.90625 134.4375 C 82.050781 134.175781 82.242188 133.957031 82.433594 133.742188 C 82.480469 133.695312 82.554688 133.625 82.601562 133.574219 C 82.769531 133.429688 82.9375 133.289062 83.128906 133.191406 C 83.199219 133.144531 83.25 133.121094 83.320312 133.070312 C 83.558594 132.929688 83.824219 132.832031 84.109375 132.761719 C 84.375 132.6875 84.664062 132.664062 84.925781 132.664062 C 85 132.664062 85.070312 132.664062 85.140625 132.664062 C 85.359375 132.664062 85.550781 132.6875 85.765625 132.734375 C 85.835938 132.761719 85.910156 132.761719 86.003906 132.785156 C 86.269531 132.855469 86.554688 132.976562 86.796875 133.121094 C 87.898438 133.765625 88.59375 134.964844 88.59375 136.234375 C 88.59375 136.859375 88.425781 137.484375 88.113281 138.035156 L 86.390625 141.054688 L 82.839844 147.214844 C 81.832031 148.894531 79.652344 149.46875 77.949219 148.488281 Z M 85.359375 157.570312 C 84.253906 156.925781 83.558594 155.75 83.558594 154.457031 C 83.558594 153.832031 83.726562 153.210938 84.039062 152.679688 L 86.078125 149.132812 C 86.078125 149.109375 86.101562 149.109375 86.101562 149.085938 L 89.722656 142.828125 L 90.609375 141.292969 C 90.75 141.03125 90.945312 140.816406 91.136719 140.597656 C 91.183594 140.550781 91.253906 140.480469 91.328125 140.429688 C 91.496094 140.289062 91.664062 140.167969 91.832031 140.046875 C 91.902344 140 91.972656 139.953125 92.023438 139.929688 C 92.261719 139.808594 92.527344 139.6875 92.789062 139.617188 C 92.8125 139.617188 92.835938 139.617188 92.863281 139.617188 C 93.101562 139.542969 93.363281 139.519531 93.628906 139.519531 C 93.722656 139.519531 93.796875 139.519531 93.890625 139.519531 C 94.082031 139.519531 94.277344 139.542969 94.492188 139.59375 C 94.5625 139.617188 94.660156 139.617188 94.730469 139.640625 C 94.996094 139.710938 95.257812 139.808594 95.523438 139.976562 C 96.648438 140.625 97.320312 141.796875 97.320312 143.09375 C 97.320312 143.332031 97.296875 143.570312 97.25 143.8125 C 97.222656 143.882812 97.199219 143.980469 97.175781 144.050781 C 97.128906 144.195312 97.105469 144.339844 97.03125 144.484375 C 96.984375 144.578125 96.914062 144.675781 96.863281 144.746094 L 95.976562 146.28125 L 91.589844 153.878906 C 91.472656 154.097656 91.351562 154.3125 91.253906 154.527344 L 90.273438 156.230469 C 89.265625 157.957031 87.058594 158.554688 85.359375 157.570312 Z M 96.167969 160.664062 C 95.066406 160.042969 94.371094 158.84375 94.371094 157.546875 C 94.371094 157.09375 94.445312 156.660156 94.613281 156.230469 L 98.589844 149.324219 L 100.078125 146.738281 C 100.148438 146.617188 100.222656 146.472656 100.292969 146.351562 C 100.363281 146.257812 100.4375 146.183594 100.507812 146.089844 C 100.582031 145.992188 100.652344 145.921875 100.722656 145.824219 C 100.796875 145.753906 100.890625 145.679688 100.964844 145.632812 C 101.058594 145.5625 101.132812 145.488281 101.226562 145.417969 C 101.300781 145.371094 101.394531 145.320312 101.492188 145.273438 C 101.585938 145.226562 101.707031 145.152344 101.804688 145.105469 C 101.898438 145.058594 101.972656 145.058594 102.066406 145.011719 C 102.1875 144.960938 102.304688 144.9375 102.425781 144.890625 C 102.523438 144.867188 102.617188 144.867188 102.714844 144.84375 C 102.835938 144.820312 102.953125 144.792969 103.074219 144.792969 C 103.167969 144.792969 103.289062 144.792969 103.386719 144.820312 C 103.503906 144.820312 103.625 144.820312 103.722656 144.84375 C 103.839844 144.867188 103.960938 144.890625 104.082031 144.9375 C 104.175781 144.960938 104.273438 144.988281 104.367188 145.011719 C 104.585938 145.082031 104.777344 145.179688 104.992188 145.296875 C 106.117188 145.945312 106.789062 147.121094 106.789062 148.414062 C 106.789062 149.039062 106.621094 149.660156 106.308594 150.1875 L 104.054688 154.070312 C 104.054688 154.070312 104.054688 154.097656 104.03125 154.097656 L 101.011719 159.320312 C 100.078125 161.070312 97.894531 161.648438 96.167969 160.664062 Z M 110.839844 164.40625 C 109.859375 166.105469 107.652344 166.707031 105.925781 165.722656 C 104.824219 165.097656 104.128906 163.902344 104.128906 162.605469 C 104.128906 161.960938 104.296875 161.359375 104.609375 160.808594 L 107.390625 155.988281 L 109.882812 151.675781 C 110.027344 151.410156 110.21875 151.195312 110.410156 150.980469 C 110.457031 150.929688 110.527344 150.859375 110.601562 150.8125 C 110.769531 150.667969 110.9375 150.546875 111.105469 150.429688 C 111.175781 150.378906 111.25 150.332031 111.320312 150.308594 C 111.558594 150.1875 111.824219 150.070312 112.085938 149.996094 C 112.113281 149.996094 112.136719 149.996094 112.160156 149.972656 C 112.398438 149.925781 112.640625 149.875 112.902344 149.875 C 113 149.875 113.070312 149.875 113.167969 149.875 C 113.359375 149.875 113.550781 149.902344 113.742188 149.949219 C 113.835938 149.972656 113.910156 149.972656 114.003906 149.996094 C 114.269531 150.070312 114.53125 150.164062 114.796875 150.332031 C 115.921875 150.980469 116.59375 152.152344 116.59375 153.449219 C 116.59375 154.070312 116.425781 154.695312 116.113281 155.246094 Z M 127.238281 161.792969 C 126.398438 163.230469 124.554688 163.734375 123.113281 162.894531 L 117.816406 159.824219 L 119.375 157.140625 C 119.878906 156.253906 120.191406 155.292969 120.308594 154.265625 L 123.546875 156.109375 C 123.617188 156.15625 123.691406 156.230469 123.761719 156.277344 L 126.136719 157.644531 C 127.574219 158.507812 128.078125 160.351562 127.238281 161.792969 Z M 147.542969 139.042969 C 147.136719 139.734375 146.488281 140.238281 145.722656 140.457031 C 144.929688 140.671875 144.113281 140.550781 143.421875 140.144531 L 139.128906 137.675781 C 138.984375 137.601562 138.863281 137.554688 138.722656 137.507812 L 127 130.484375 C 126.113281 129.957031 124.9375 130.242188 124.410156 131.128906 C 123.882812 132.015625 124.167969 133.191406 125.058594 133.71875 L 137.164062 141.007812 C 137.164062 141.007812 137.164062 141.007812 137.1875 141.007812 C 137.1875 141.007812 137.1875 141.007812 137.210938 141.03125 L 140.949219 143.1875 C 141.644531 143.597656 142.148438 144.242188 142.363281 145.035156 C 142.582031 145.800781 142.460938 146.617188 142.054688 147.3125 C 141.644531 148.007812 141 148.511719 140.230469 148.726562 C 139.464844 148.941406 138.648438 148.820312 137.929688 148.4375 L 136.179688 147.429688 L 121.390625 138.203125 C 120.503906 137.652344 119.351562 137.914062 118.800781 138.800781 C 118.25 139.6875 118.511719 140.839844 119.398438 141.390625 L 134.238281 150.644531 C 134.238281 150.644531 134.261719 150.644531 134.261719 150.644531 C 134.261719 150.644531 134.285156 150.667969 134.285156 150.667969 C 134.980469 151.074219 135.484375 151.722656 135.675781 152.488281 C 135.890625 153.28125 135.773438 154.097656 135.390625 154.765625 L 135.222656 155.03125 C 134.382812 156.46875 132.535156 156.972656 131.097656 156.132812 L 125.65625 152.992188 L 118.96875 149.179688 C 118.367188 148.34375 117.601562 147.625 116.691406 147.097656 C 116.449219 146.953125 116.210938 146.832031 115.972656 146.738281 C 115.898438 146.710938 115.828125 146.6875 115.753906 146.640625 C 115.585938 146.570312 115.417969 146.496094 115.226562 146.449219 C 115.132812 146.425781 115.035156 146.402344 114.941406 146.375 C 114.773438 146.328125 114.628906 146.304688 114.460938 146.257812 C 114.363281 146.234375 114.269531 146.207031 114.148438 146.207031 C 114.003906 146.183594 113.835938 146.160156 113.695312 146.160156 C 113.597656 146.160156 113.476562 146.136719 113.382812 146.136719 C 113.238281 146.136719 113.070312 146.136719 112.925781 146.136719 C 112.832031 146.136719 112.710938 146.136719 112.613281 146.136719 C 112.445312 146.136719 112.304688 146.160156 112.160156 146.183594 C 112.0625 146.183594 111.96875 146.207031 111.871094 146.207031 C 111.679688 146.234375 111.511719 146.28125 111.320312 146.328125 C 111.25 146.351562 111.199219 146.351562 111.128906 146.375 C 110.890625 146.449219 110.648438 146.519531 110.410156 146.617188 C 110.410156 146.617188 110.386719 146.617188 110.386719 146.617188 C 110.386719 146.617188 110.386719 146.59375 110.363281 146.59375 C 110.242188 146.183594 110.097656 145.777344 109.929688 145.371094 C 109.882812 145.273438 109.835938 145.203125 109.785156 145.105469 C 109.59375 144.746094 109.402344 144.386719 109.164062 144.074219 C 109.140625 144.050781 109.140625 144.027344 109.113281 144.003906 C 108.851562 143.667969 108.5625 143.355469 108.226562 143.042969 C 108.15625 142.972656 108.085938 142.902344 107.988281 142.828125 C 107.652344 142.542969 107.292969 142.277344 106.910156 142.0625 C 106.527344 141.847656 106.117188 141.679688 105.734375 141.535156 C 105.6875 141.511719 105.640625 141.484375 105.566406 141.484375 C 105.183594 141.367188 104.777344 141.269531 104.390625 141.199219 C 104.320312 141.199219 104.25 141.175781 104.175781 141.175781 C 103.792969 141.125 103.386719 141.101562 103 141.125 C 102.929688 141.125 102.882812 141.125 102.835938 141.125 C 102.425781 141.152344 102.019531 141.199219 101.613281 141.292969 C 101.585938 141.292969 101.585938 141.292969 101.5625 141.320312 C 101.347656 141.367188 101.109375 141.4375 100.890625 141.511719 C 100.867188 141.460938 100.867188 141.390625 100.84375 141.34375 C 100.820312 141.246094 100.796875 141.152344 100.773438 141.054688 C 100.722656 140.863281 100.652344 140.671875 100.582031 140.480469 C 100.554688 140.382812 100.507812 140.3125 100.484375 140.214844 C 100.390625 140 100.269531 139.761719 100.148438 139.542969 C 100.125 139.496094 100.101562 139.472656 100.078125 139.425781 C 99.933594 139.183594 99.765625 138.945312 99.597656 138.707031 C 99.550781 138.632812 99.5 138.585938 99.453125 138.515625 C 99.308594 138.347656 99.191406 138.179688 99.046875 138.035156 C 98.972656 137.960938 98.902344 137.890625 98.832031 137.820312 C 98.6875 137.675781 98.519531 137.53125 98.375 137.410156 C 98.304688 137.363281 98.230469 137.292969 98.160156 137.242188 C 97.917969 137.074219 97.679688 136.90625 97.417969 136.738281 C 97.054688 136.523438 96.671875 136.355469 96.289062 136.210938 C 96.242188 136.1875 96.195312 136.164062 96.144531 136.164062 C 95.785156 136.042969 95.425781 135.949219 95.042969 135.875 C 94.972656 135.851562 94.898438 135.851562 94.828125 135.828125 C 94.46875 135.78125 94.109375 135.757812 93.75 135.757812 C 93.675781 135.757812 93.605469 135.757812 93.507812 135.757812 C 93.148438 135.757812 92.789062 135.804688 92.429688 135.875 C 92.40625 135.875 92.382812 135.875 92.382812 135.875 C 92.382812 135.78125 92.359375 135.683594 92.332031 135.566406 C 92.308594 135.421875 92.308594 135.277344 92.285156 135.132812 C 92.261719 134.964844 92.214844 134.796875 92.191406 134.628906 C 92.167969 134.484375 92.117188 134.34375 92.09375 134.222656 C 92.046875 134.054688 92 133.886719 91.925781 133.742188 C 91.878906 133.625 91.832031 133.480469 91.78125 133.359375 C 91.710938 133.191406 91.640625 133.046875 91.542969 132.878906 C 91.472656 132.761719 91.421875 132.640625 91.351562 132.519531 C 91.253906 132.375 91.160156 132.207031 91.0625 132.066406 C 90.992188 131.96875 90.917969 131.847656 90.847656 131.753906 C 90.726562 131.609375 90.609375 131.464844 90.464844 131.320312 C 90.390625 131.226562 90.296875 131.128906 90.222656 131.058594 C 90.082031 130.914062 89.914062 130.769531 89.746094 130.625 C 89.671875 130.554688 89.601562 130.484375 89.527344 130.433594 C 89.289062 130.242188 89.027344 130.074219 88.738281 129.90625 C 88.332031 129.667969 87.921875 129.5 87.492188 129.355469 C 87.46875 129.355469 87.445312 129.332031 87.417969 129.332031 C 87.011719 129.1875 86.605469 129.09375 86.171875 129.042969 C 86.125 129.042969 86.101562 129.019531 86.054688 129.019531 C 85.644531 128.972656 85.238281 128.949219 84.832031 128.949219 C 84.78125 128.949219 84.734375 128.949219 84.664062 128.949219 C 84.277344 128.972656 83.871094 129.019531 83.488281 129.117188 C 83.441406 129.140625 83.367188 129.140625 83.320312 129.164062 C 82.9375 129.261719 82.578125 129.378906 82.21875 129.523438 C 82.167969 129.546875 82.097656 129.570312 82.050781 129.597656 C 81.691406 129.761719 81.355469 129.929688 81.019531 130.148438 C 80.972656 130.171875 80.921875 130.21875 80.875 130.242188 C 80.539062 130.457031 80.226562 130.722656 79.941406 130.984375 C 79.890625 131.035156 79.867188 131.058594 79.820312 131.105469 C 79.53125 131.394531 79.246094 131.707031 79.003906 132.066406 C 79.003906 132.066406 78.980469 132.089844 78.980469 132.089844 C 78.308594 130.289062 76.945312 128.804688 75.144531 128.011719 L 71.933594 126.550781 L 75.601562 118.953125 L 83.488281 102.648438 L 87.875 104.832031 C 89.242188 105.503906 90.75 105.71875 92.238281 105.457031 L 102.042969 103.777344 C 103.625 103.511719 105.230469 103.730469 106.667969 104.449219 L 109.785156 105.984375 L 95.691406 115.429688 C 94.324219 116.339844 93.484375 117.800781 93.414062 119.457031 C 93.363281 120.484375 93.628906 121.46875 94.132812 122.308594 C 94.445312 122.8125 94.828125 123.265625 95.332031 123.652344 L 97.082031 125.039062 C 99.429688 126.933594 102.59375 127.605469 105.519531 126.816406 L 121.890625 122.332031 C 123.140625 121.996094 124.433594 122.164062 125.535156 122.789062 L 146.394531 134.558594 C 146.511719 134.796875 146.679688 135.011719 146.871094 135.179688 C 148 136.164062 148.285156 137.769531 147.542969 139.042969 Z M 148.742188 131.609375 L 127.40625 119.550781 C 127.117188 119.382812 126.808594 119.238281 126.496094 119.121094 C 126.398438 119.070312 126.304688 119.046875 126.230469 119.023438 C 125.992188 118.929688 125.777344 118.855469 125.535156 118.785156 C 125.441406 118.761719 125.34375 118.734375 125.25 118.710938 C 124.960938 118.640625 124.671875 118.59375 124.386719 118.542969 C 124.335938 118.542969 124.3125 118.519531 124.265625 118.519531 C 123.929688 118.472656 123.617188 118.472656 123.28125 118.449219 C 123.257812 118.449219 123.210938 118.449219 123.1875 118.449219 C 123.113281 118.449219 123.066406 118.449219 122.996094 118.472656 C 122.730469 118.472656 122.492188 118.496094 122.226562 118.519531 C 122.132812 118.519531 122.011719 118.542969 121.917969 118.566406 C 121.582031 118.617188 121.246094 118.6875 120.910156 118.785156 L 104.535156 123.265625 C 102.761719 123.746094 100.867188 123.339844 99.453125 122.210938 L 97.703125 120.820312 C 97.367188 120.558594 97.175781 120.152344 97.199219 119.71875 C 97.222656 119.289062 97.441406 118.902344 97.800781 118.664062 L 117.457031 105.457031 C 119.734375 103.945312 122.539062 103.464844 125.199219 104.136719 L 135.03125 106.679688 C 137.066406 107.207031 139.199219 106.964844 141.070312 106.007812 L 142.582031 105.214844 L 154.207031 129.285156 Z M 169.335938 127.679688 L 161.015625 131.707031 C 160.394531 131.992188 159.625 131.753906 159.339844 131.128906 L 142.484375 96.25 C 142.171875 95.625 142.4375 94.859375 143.058594 94.570312 L 151.378906 90.542969 C 151.546875 90.449219 151.738281 90.425781 151.929688 90.425781 C 152.410156 90.425781 152.839844 90.6875 153.058594 91.144531 L 169.910156 126.023438 C 170.222656 126.625 169.957031 127.367188 169.335938 127.679688 Z M 149.820312 94.285156 C 148 94.285156 146.535156 95.769531 146.535156 97.566406 C 146.535156 99.367188 148.023438 100.851562 149.820312 100.851562 C 151.617188 100.851562 153.105469 99.367188 153.105469 97.566406 C 153.105469 95.769531 151.644531 94.285156 149.820312 94.285156 Z M 149.820312 98.046875 C 149.558594 98.046875 149.339844 97.832031 149.339844 97.566406 C 149.339844 97.304688 149.558594 97.089844 149.820312 97.089844 C 150.085938 97.089844 150.300781 97.304688 150.300781 97.566406 C 150.300781 97.832031 150.085938 98.046875 149.820312 98.046875 Z M 75.335938 94.285156 C 73.515625 94.285156 72.054688 95.769531 72.054688 97.566406 C 72.054688 99.367188 73.539062 100.851562 75.335938 100.851562 C 77.136719 100.851562 78.621094 99.367188 78.621094 97.566406 C 78.621094 95.769531 77.160156 94.285156 75.335938 94.285156 Z M 75.335938 98.046875 C 75.074219 98.046875 74.859375 97.832031 74.859375 97.566406 C 74.859375 97.304688 75.074219 97.089844 75.335938 97.089844 C 75.601562 97.089844 75.816406 97.304688 75.816406 97.566406 C 75.816406 97.832031 75.601562 98.046875 75.335938 98.046875 Z M 75.335938 98.046875 " fill-opacity="1" fill-rule="nonzero"/></g></svg>