<svg xmlns="http://www.w3.org/2000/svg" xmlns:xlink="http://www.w3.org/1999/xlink" width="300" zoomAndPan="magnify" viewBox="0 0 224.87999 225" height="300" preserveAspectRatio="xMidYMid meet" version="1.0"><defs><clipPath id="da13932a20"><path d="M 59.339844 0.0585938 L 165.78125 0.0585938 L 165.78125 224.9375 L 59.339844 224.9375 Z M 59.339844 0.0585938 " clip-rule="nonzero"/></clipPath></defs><g clip-path="url(#da13932a20)"><path fill="#ffffff" d="M 141.226562 37.398438 L 165.78125 37.398438 L 165.78125 0.460938 L 134.425781 0.460938 L 134.425781 0.601562 C 93.199219 2.109375 84.699219 25.148438 83.988281 49.507812 L 83.894531 49.507812 L 83.894531 75.136719 L 59.339844 75.136719 L 59.339844 112.125 L 83.894531 112.125 L 83.894531 224.539062 L 127.953125 224.539062 L 127.953125 112.125 L 159.546875 112.125 L 165.78125 75.136719 L 127.953125 75.136719 L 127.953125 52.191406 C 127.953125 44.042969 133.433594 37.398438 141.226562 37.398438 Z M 141.226562 37.398438 " fill-opacity="1" fill-rule="nonzero"/></g></svg>