<svg xmlns="http://www.w3.org/2000/svg" xmlns:xlink="http://www.w3.org/1999/xlink" width="300" zoomAndPan="magnify" viewBox="0 0 224.87999 225" height="300" preserveAspectRatio="xMidYMid meet" version="1.0"><defs><clipPath id="722f84931a"><path d="M 0 0.0585938 L 224.761719 0.0585938 L 224.761719 224.9375 L 0 224.9375 Z M 0 0.0585938 " clip-rule="nonzero"/></clipPath></defs><g clip-path="url(#722f84931a)"><path fill="#ffffff" d="M 224.855469 91.679688 L 167.769531 91.679688 C 170.210938 98.15625 171.550781 105.171875 171.550781 112.5 C 171.550781 145.140625 145.046875 171.636719 112.414062 171.636719 C 79.773438 171.636719 53.28125 145.140625 53.28125 112.5 C 53.28125 105.171875 54.613281 98.15625 57.054688 91.679688 L -0.0234375 91.679688 L -0.0234375 190.792969 C -0.0234375 209.648438 15.257812 224.941406 34.125 224.941406 L 190.707031 224.941406 C 209.5625 224.941406 224.855469 209.648438 224.855469 190.792969 Z M 112.414062 65.023438 C 138.617188 65.023438 159.890625 86.296875 159.890625 112.5 C 159.890625 138.703125 138.617188 159.976562 112.414062 159.976562 C 86.210938 159.976562 64.941406 138.703125 64.941406 112.5 C 64.941406 86.296875 86.210938 65.023438 112.414062 65.023438 Z M -0.0234375 80.015625 L 63 80.015625 C 73.585938 63.96875 91.769531 53.363281 112.414062 53.363281 C 133.054688 53.363281 151.246094 63.96875 161.820312 80.015625 L 224.855469 80.015625 L 224.855469 34.207031 C 224.855469 15.351562 209.5625 0.0585938 190.707031 0.0585938 L 34.125 0.0585938 C 15.257812 0.0585938 -0.0234375 15.351562 -0.0234375 34.207031 Z M 179.046875 32.542969 C 186.402344 32.542969 192.371094 38.515625 192.371094 45.867188 C 192.371094 53.222656 186.402344 59.195312 179.046875 59.195312 C 171.691406 59.195312 165.71875 53.222656 165.71875 45.867188 C 165.71875 38.515625 171.691406 32.542969 179.046875 32.542969 Z M 179.046875 32.542969 " fill-opacity="1" fill-rule="evenodd"/></g></svg>