<svg xmlns="http://www.w3.org/2000/svg" xmlns:xlink="http://www.w3.org/1999/xlink" width="300" zoomAndPan="magnify" viewBox="0 0 224.87999 225" height="300" preserveAspectRatio="xMidYMid meet" version="1.0"><defs><clipPath id="11a9733123"><path d="M 0 0.0585938 L 224.761719 0.0585938 L 224.761719 224.9375 L 0 224.9375 Z M 0 0.0585938 " clip-rule="nonzero"/></clipPath></defs><g clip-path="url(#11a9733123)"><path fill="#ffffff" d="M 189.050781 224.941406 L 35.832031 224.941406 C 16.074219 224.941406 0 208.867188 0 189.109375 L 0 35.890625 C 0 16.132812 16.074219 0.0585938 35.832031 0.0585938 L 189.050781 0.0585938 C 208.804688 0.0585938 224.878906 16.132812 224.878906 35.890625 L 224.878906 189.109375 C 224.878906 208.867188 208.804688 224.941406 189.050781 224.941406 Z M 35.832031 8.878906 C 20.9375 8.878906 8.820312 20.996094 8.820312 35.890625 L 8.820312 189.109375 C 8.820312 204.003906 20.9375 216.121094 35.832031 216.121094 L 189.050781 216.121094 C 203.941406 216.121094 216.0625 204.003906 216.0625 189.109375 L 216.0625 35.890625 C 216.0625 20.996094 203.945312 8.878906 189.050781 8.878906 Z M 35.832031 8.878906 " fill-opacity="1" fill-rule="nonzero"/></g><path fill="#ffffff" d="M 68.347656 56.632812 C 68.347656 57.5 68.261719 58.359375 68.089844 59.210938 C 67.921875 60.0625 67.671875 60.890625 67.339844 61.691406 C 67.007812 62.496094 66.597656 63.257812 66.117188 63.980469 C 65.632812 64.703125 65.085938 65.371094 64.472656 65.984375 C 63.855469 66.597656 63.1875 67.148438 62.46875 67.628906 C 61.746094 68.113281 60.980469 68.519531 60.179688 68.851562 C 59.378906 69.183594 58.550781 69.4375 57.699219 69.605469 C 56.847656 69.773438 55.984375 69.859375 55.117188 69.859375 C 54.25 69.859375 53.390625 69.773438 52.535156 69.605469 C 51.683594 69.4375 50.859375 69.183594 50.054688 68.851562 C 49.253906 68.519531 48.492188 68.113281 47.769531 67.628906 C 47.046875 67.148438 46.378906 66.597656 45.765625 65.984375 C 45.148438 65.371094 44.601562 64.703125 44.117188 63.980469 C 43.636719 63.257812 43.230469 62.496094 42.894531 61.691406 C 42.5625 60.890625 42.3125 60.0625 42.144531 59.210938 C 41.972656 58.359375 41.890625 57.5 41.890625 56.632812 C 41.890625 55.761719 41.972656 54.902344 42.144531 54.050781 C 42.3125 53.199219 42.5625 52.371094 42.894531 51.570312 C 43.230469 50.765625 43.636719 50.003906 44.117188 49.28125 C 44.601562 48.558594 45.148438 47.890625 45.765625 47.277344 C 46.378906 46.664062 47.046875 46.113281 47.769531 45.632812 C 48.492188 45.148438 49.253906 44.742188 50.054688 44.410156 C 50.859375 44.078125 51.683594 43.828125 52.535156 43.65625 C 53.390625 43.488281 54.25 43.402344 55.117188 43.402344 C 55.984375 43.402344 56.847656 43.488281 57.699219 43.65625 C 58.550781 43.828125 59.378906 44.078125 60.179688 44.410156 C 60.980469 44.742188 61.746094 45.148438 62.46875 45.632812 C 63.1875 46.113281 63.855469 46.664062 64.472656 47.277344 C 65.085938 47.890625 65.632812 48.558594 66.117188 49.28125 C 66.597656 50.003906 67.007812 50.765625 67.339844 51.570312 C 67.671875 52.371094 67.921875 53.199219 68.089844 54.050781 C 68.261719 54.902344 68.347656 55.761719 68.347656 56.632812 Z M 68.347656 56.632812 " fill-opacity="1" fill-rule="nonzero"/><path fill="#ffffff" d="M 41.890625 96.640625 L 68.347656 96.640625 L 68.347656 182.847656 L 41.890625 182.847656 Z M 41.890625 96.640625 " fill-opacity="1" fill-rule="nonzero"/><path fill="#ffffff" d="M 174.171875 127.675781 L 174.171875 182.792969 L 146.832031 182.792969 L 146.832031 147.296875 C 146.832031 139.023438 140.121094 132.132812 131.621094 132.191406 C 123.050781 132.253906 116.410156 139.457031 116.410156 147.542969 L 116.410156 182.847656 L 89.953125 182.847656 L 89.953125 96.640625 L 116.410156 96.640625 L 116.410156 112.800781 C 116.410156 112.800781 136.273438 90.632812 159.871094 104.261719 C 168.347656 109.15625 173.847656 117.972656 174.171875 127.675781 Z M 174.171875 127.675781 " fill-opacity="1" fill-rule="nonzero"/></svg>