<svg xmlns="http://www.w3.org/2000/svg" xmlns:xlink="http://www.w3.org/1999/xlink" width="300" zoomAndPan="magnify" viewBox="0 0 224.87999 225" height="300" preserveAspectRatio="xMidYMid meet" version="1.0"><defs><clipPath id="c0c3e74994"><path d="M 51 52.644531 L 174 52.644531 L 174 170 L 51 170 Z M 51 52.644531 " clip-rule="nonzero"/></clipPath><clipPath id="f129c63873"><path d="M 0 0.0585938 L 224.761719 0.0585938 L 224.761719 224.9375 L 0 224.9375 Z M 0 0.0585938 " clip-rule="nonzero"/></clipPath><clipPath id="c6a64a4358"><path d="M 112.441406 0.0585938 C 50.339844 0.0585938 0 50.402344 0 112.5 C 0 174.597656 50.339844 224.941406 112.441406 224.941406 C 174.539062 224.941406 224.878906 174.597656 224.878906 112.5 C 224.878906 50.402344 174.539062 0.0585938 112.441406 0.0585938 Z M 112.441406 0.0585938 " clip-rule="nonzero"/></clipPath><clipPath id="8bd5384c0e"><path d="M 59.800781 52 L 166 52 L 166 165.386719 L 59.800781 165.386719 Z M 59.800781 52 " clip-rule="nonzero"/></clipPath></defs><g clip-path="url(#c0c3e74994)"><path fill="#ffffff" d="M 110.328125 81.746094 C 109.25 80.738281 109.226562 79.398438 109.226562 79.179688 C 109.296875 78.535156 109.082031 77.886719 108.625 77.429688 C 108.21875 77 107.644531 76.761719 107.113281 76.785156 C 106.585938 76.808594 106.085938 77.070312 105.726562 77.503906 C 105.339844 77.957031 105.148438 78.582031 105.222656 79.15625 C 105.484375 82.875 107.425781 85.101562 111 85.796875 L 111 86.78125 C 111 87.761719 111.789062 88.554688 112.773438 88.554688 C 113.753906 88.554688 114.546875 87.761719 114.546875 86.78125 L 114.546875 85.820312 C 116.152344 85.558594 117.449219 84.863281 118.429688 83.761719 C 119.605469 82.417969 120.179688 80.835938 120.179688 79.039062 C 120.179688 77.289062 119.699219 75.898438 118.765625 74.867188 C 117.949219 73.980469 116.585938 73.308594 114.570312 72.78125 L 114.570312 67.003906 C 114.738281 67.097656 114.882812 67.195312 115.003906 67.316406 C 115.625 67.960938 115.671875 68.753906 115.671875 69.039062 C 115.769531 70.09375 116.609375 70.886719 117.710938 70.886719 C 118.742188 70.886719 119.605469 70.070312 119.699219 68.921875 C 119.367188 65.804688 117.617188 63.886719 114.570312 63.359375 L 114.570312 62.398438 C 114.570312 61.417969 113.78125 60.625 112.796875 60.625 C 111.8125 60.625 111.023438 61.417969 111.023438 62.398438 L 111.023438 63.382812 C 109.558594 63.671875 108.335938 64.269531 107.425781 65.179688 C 106.277344 66.308594 105.675781 67.816406 105.675781 69.664062 C 105.675781 72.683594 107.476562 74.699219 111.023438 75.65625 L 111.023438 82.179688 C 110.734375 82.058594 110.496094 81.914062 110.328125 81.746094 Z M 109.65625 69.449219 C 109.65625 68.25 110.085938 67.457031 111 67.003906 L 111 71.75 C 110.710938 71.605469 110.472656 71.460938 110.28125 71.269531 C 109.871094 70.933594 109.65625 70.3125 109.65625 69.449219 Z M 116.175781 79.179688 C 116.175781 80.761719 115.648438 81.746094 114.570312 82.226562 L 114.570312 76.617188 C 115.195312 76.878906 115.503906 77.121094 115.671875 77.3125 C 116.007812 77.71875 116.175781 78.34375 116.175781 79.179688 Z M 110.566406 96.441406 C 111.09375 96.488281 111.597656 96.539062 112.101562 96.539062 C 112.292969 96.5625 112.484375 96.5625 112.675781 96.5625 C 112.917969 96.5625 113.132812 96.5625 113.253906 96.539062 C 119.582031 96.371094 125.550781 93.492188 129.601562 88.601562 C 132.863281 84.671875 134.636719 79.707031 134.636719 74.601562 C 134.636719 73.570312 134.5625 72.566406 134.445312 71.652344 C 134.230469 70.09375 133.867188 68.5625 133.339844 67.097656 C 131.089844 60.9375 126.269531 56.121094 120.085938 53.9375 C 118.621094 53.410156 117.089844 53.050781 115.53125 52.835938 C 114.59375 52.714844 113.613281 52.644531 112.675781 52.644531 C 100.570312 52.644531 90.71875 62.496094 90.71875 74.601562 C 90.742188 85.988281 99.277344 95.386719 110.566406 96.441406 Z M 112.699219 56.40625 C 113.492188 56.40625 114.28125 56.453125 115.074219 56.550781 C 116.34375 56.71875 117.617188 57.03125 118.839844 57.460938 C 123.945312 59.285156 127.949219 63.261719 129.816406 68.371094 C 130.25 69.566406 130.5625 70.816406 130.730469 72.132812 C 130.847656 72.898438 130.894531 73.714844 130.894531 74.578125 C 130.894531 78.796875 129.410156 82.921875 126.726562 86.179688 C 123.367188 90.234375 118.429688 92.628906 113.058594 92.75 C 112.941406 92.75 112.820312 92.75 112.699219 92.75 C 112.582031 92.75 112.460938 92.75 112.339844 92.75 L 112.171875 92.75 C 111.765625 92.75 111.382812 92.726562 110.949219 92.679688 C 101.578125 91.792969 94.503906 84.023438 94.503906 74.578125 C 94.503906 64.558594 102.679688 56.40625 112.699219 56.40625 Z M 173.328125 124.347656 L 156.476562 89.464844 C 155.253906 86.972656 152.257812 85.917969 149.761719 87.140625 L 141.421875 91.167969 C 138.925781 92.367188 137.871094 95.386719 139.09375 97.878906 L 140.964844 101.765625 L 139.359375 102.578125 C 138.304688 103.105469 137.105469 103.25 135.953125 102.960938 L 126.125 100.421875 C 122.433594 99.460938 118.503906 100.15625 115.363281 102.265625 L 113.394531 103.585938 L 108.363281 101.09375 C 106.179688 100.015625 103.78125 99.679688 101.410156 100.085938 L 91.605469 101.765625 C 90.910156 101.882812 90.191406 101.789062 89.542969 101.476562 L 85.132812 99.292969 L 86.304688 96.847656 C 86.882812 95.652344 86.976562 94.285156 86.523438 93.015625 C 86.089844 91.742188 85.179688 90.710938 83.957031 90.136719 L 75.636719 86.109375 C 73.144531 84.886719 70.125 85.941406 68.925781 88.433594 L 52.074219 123.292969 C 50.875 125.785156 51.90625 128.804688 54.421875 130.027344 L 62.742188 134.054688 C 63.4375 134.390625 64.203125 134.558594 64.921875 134.558594 C 66.792969 134.558594 68.589844 133.503906 69.453125 131.730469 L 70.292969 129.980469 L 73.625 131.464844 C 74.777344 131.96875 75.542969 133.046875 75.664062 134.296875 L 75.949219 137.292969 L 73.386719 141.703125 C 72.738281 142.804688 72.402344 144.078125 72.402344 145.394531 C 72.402344 148.03125 73.816406 150.476562 76.070312 151.773438 C 77.222656 152.441406 78.492188 152.753906 79.738281 152.753906 C 79.832031 152.753906 79.90625 152.730469 80 152.730469 C 79.859375 153.304688 79.785156 153.882812 79.785156 154.457031 C 79.785156 157.09375 81.199219 159.539062 83.476562 160.832031 C 84.628906 161.503906 85.898438 161.816406 87.144531 161.816406 C 88.609375 161.816406 90.046875 161.359375 91.269531 160.546875 C 91.890625 161.9375 92.945312 163.136719 94.289062 163.925781 C 95.441406 164.597656 96.710938 164.910156 97.957031 164.910156 C 98.867188 164.910156 99.753906 164.742188 100.59375 164.40625 C 101.074219 166.324219 102.296875 167.976562 104.046875 168.984375 C 105.199219 169.65625 106.46875 169.96875 107.714844 169.96875 C 110.253906 169.96875 112.75 168.648438 114.089844 166.300781 L 115.9375 163.109375 L 121.234375 166.179688 C 122.289062 166.804688 123.464844 167.089844 124.617188 167.089844 C 126.964844 167.089844 129.265625 165.867188 130.511719 163.710938 C 131.136719 162.609375 131.425781 161.410156 131.425781 160.234375 C 134.15625 160.714844 137.035156 159.492188 138.496094 156.972656 L 138.664062 156.710938 C 139.382812 155.464844 139.695312 154.050781 139.527344 152.632812 C 140.078125 152.632812 140.628906 152.539062 141.179688 152.394531 C 142.929688 151.914062 144.394531 150.789062 145.304688 149.230469 C 146.167969 147.71875 146.429688 145.96875 146.046875 144.269531 C 146.261719 144.242188 146.480469 144.195312 146.695312 144.125 C 148.445312 143.644531 149.90625 142.519531 150.816406 140.960938 C 151.96875 138.992188 151.992188 136.667969 151.105469 134.726562 L 155.875 132.640625 L 155.949219 132.808594 C 156.8125 134.605469 158.609375 135.636719 160.480469 135.636719 C 161.222656 135.636719 161.964844 135.46875 162.660156 135.132812 L 170.980469 131.105469 C 172.179688 130.53125 173.089844 129.5 173.542969 128.230469 C 174 126.9375 173.902344 125.570312 173.328125 124.347656 Z M 64.371094 130.652344 L 56.050781 126.625 C 55.429688 126.3125 55.164062 125.570312 55.476562 124.945312 L 72.332031 90.066406 C 72.546875 89.609375 73 89.347656 73.457031 89.347656 C 73.648438 89.347656 73.839844 89.394531 74.007812 89.464844 L 82.328125 93.492188 C 82.640625 93.636719 82.855469 93.902344 82.972656 94.210938 C 83.09375 94.523438 83.070312 94.882812 82.925781 95.171875 L 80.9375 99.292969 L 80.792969 99.582031 L 66.050781 130.050781 C 65.761719 130.675781 64.996094 130.9375 64.371094 130.652344 Z M 77.964844 148.488281 C 76.859375 147.863281 76.164062 146.664062 76.164062 145.371094 C 76.164062 144.722656 76.332031 144.125 76.644531 143.574219 L 79.640625 138.394531 L 81.917969 134.4375 C 82.0625 134.175781 82.253906 133.960938 82.445312 133.742188 C 82.496094 133.695312 82.566406 133.625 82.613281 133.574219 C 82.78125 133.433594 82.949219 133.289062 83.140625 133.191406 C 83.214844 133.144531 83.261719 133.121094 83.332031 133.074219 C 83.574219 132.929688 83.835938 132.832031 84.125 132.761719 C 84.390625 132.6875 84.675781 132.664062 84.941406 132.664062 C 85.011719 132.664062 85.082031 132.664062 85.15625 132.664062 C 85.371094 132.664062 85.5625 132.6875 85.777344 132.738281 C 85.851562 132.761719 85.921875 132.761719 86.019531 132.785156 C 86.28125 132.855469 86.570312 132.976562 86.808594 133.121094 C 87.914062 133.769531 88.609375 134.964844 88.609375 136.238281 C 88.609375 136.859375 88.441406 137.484375 88.128906 138.035156 L 86.402344 141.054688 L 82.855469 147.214844 C 81.847656 148.894531 79.667969 149.46875 77.964844 148.488281 Z M 85.371094 157.574219 C 84.269531 156.925781 83.574219 155.75 83.574219 154.457031 C 83.574219 153.832031 83.742188 153.210938 84.054688 152.683594 L 86.089844 149.132812 C 86.089844 149.109375 86.113281 149.109375 86.113281 149.085938 L 89.734375 142.828125 L 90.621094 141.296875 C 90.765625 141.03125 90.957031 140.816406 91.148438 140.601562 C 91.195312 140.550781 91.269531 140.480469 91.339844 140.433594 C 91.507812 140.289062 91.675781 140.167969 91.84375 140.046875 C 91.917969 140 91.988281 139.953125 92.035156 139.929688 C 92.277344 139.808594 92.539062 139.6875 92.804688 139.617188 C 92.828125 139.617188 92.851562 139.617188 92.875 139.617188 C 93.113281 139.546875 93.378906 139.519531 93.640625 139.519531 C 93.738281 139.519531 93.808594 139.519531 93.90625 139.519531 C 94.097656 139.519531 94.289062 139.546875 94.503906 139.59375 C 94.578125 139.617188 94.671875 139.617188 94.746094 139.640625 C 95.007812 139.714844 95.273438 139.808594 95.535156 139.976562 C 96.664062 140.625 97.335938 141.800781 97.335938 143.09375 C 97.335938 143.332031 97.308594 143.574219 97.261719 143.8125 C 97.238281 143.882812 97.214844 143.980469 97.191406 144.050781 C 97.140625 144.195312 97.117188 144.339844 97.046875 144.484375 C 97 144.578125 96.925781 144.675781 96.878906 144.746094 L 95.992188 146.28125 L 91.605469 153.882812 C 91.484375 154.097656 91.363281 154.3125 91.269531 154.527344 L 90.285156 156.230469 C 89.277344 157.957031 87.074219 158.554688 85.371094 157.574219 Z M 96.183594 160.664062 C 95.082031 160.042969 94.386719 158.84375 94.386719 157.550781 C 94.386719 157.09375 94.457031 156.664062 94.625 156.230469 L 98.605469 149.328125 L 100.089844 146.738281 C 100.164062 146.617188 100.234375 146.472656 100.308594 146.355469 C 100.378906 146.257812 100.449219 146.1875 100.523438 146.089844 C 100.59375 145.992188 100.667969 145.921875 100.738281 145.828125 C 100.808594 145.753906 100.90625 145.683594 100.976562 145.632812 C 101.074219 145.5625 101.144531 145.492188 101.242188 145.417969 C 101.3125 145.371094 101.410156 145.324219 101.503906 145.273438 C 101.601562 145.226562 101.722656 145.15625 101.816406 145.105469 C 101.914062 145.058594 101.984375 145.058594 102.082031 145.011719 C 102.199219 144.964844 102.320312 144.9375 102.441406 144.890625 C 102.535156 144.867188 102.632812 144.867188 102.726562 144.84375 C 102.847656 144.820312 102.96875 144.796875 103.085938 144.796875 C 103.183594 144.796875 103.304688 144.796875 103.398438 144.820312 C 103.519531 144.820312 103.640625 144.820312 103.734375 144.84375 C 103.855469 144.867188 103.976562 144.890625 104.09375 144.9375 C 104.191406 144.964844 104.285156 144.988281 104.382812 145.011719 C 104.597656 145.082031 104.789062 145.179688 105.003906 145.300781 C 106.132812 145.945312 106.804688 147.121094 106.804688 148.414062 C 106.804688 149.039062 106.636719 149.660156 106.324219 150.1875 L 104.070312 154.074219 C 104.070312 154.074219 104.070312 154.097656 104.046875 154.097656 L 101.027344 159.324219 C 100.089844 161.074219 97.910156 161.648438 96.183594 160.664062 Z M 110.855469 164.40625 C 109.871094 166.109375 107.667969 166.707031 105.941406 165.722656 C 104.835938 165.101562 104.140625 163.902344 104.140625 162.609375 C 104.140625 161.960938 104.308594 161.359375 104.621094 160.808594 L 107.402344 155.992188 L 109.894531 151.675781 C 110.039062 151.410156 110.230469 151.195312 110.421875 150.980469 C 110.472656 150.933594 110.542969 150.859375 110.617188 150.8125 C 110.78125 150.667969 110.949219 150.550781 111.117188 150.429688 C 111.191406 150.382812 111.261719 150.332031 111.335938 150.308594 C 111.574219 150.1875 111.839844 150.070312 112.101562 149.996094 C 112.125 149.996094 112.148438 149.996094 112.171875 149.972656 C 112.414062 149.925781 112.652344 149.878906 112.917969 149.878906 C 113.011719 149.878906 113.085938 149.878906 113.179688 149.878906 C 113.371094 149.878906 113.5625 149.902344 113.753906 149.949219 C 113.851562 149.972656 113.921875 149.972656 114.019531 149.996094 C 114.28125 150.070312 114.546875 150.164062 114.8125 150.332031 C 115.9375 150.980469 116.609375 152.15625 116.609375 153.449219 C 116.609375 154.074219 116.441406 154.695312 116.128906 155.246094 Z M 127.253906 161.792969 C 126.414062 163.230469 124.566406 163.734375 123.128906 162.894531 L 117.832031 159.828125 L 119.390625 157.140625 C 119.894531 156.253906 120.203125 155.296875 120.324219 154.265625 L 123.5625 156.109375 C 123.632812 156.160156 123.703125 156.230469 123.777344 156.277344 L 126.148438 157.644531 C 127.589844 158.507812 128.089844 160.355469 127.253906 161.792969 Z M 147.558594 139.042969 C 147.148438 139.738281 146.503906 140.242188 145.734375 140.457031 C 144.945312 140.671875 144.128906 140.550781 143.433594 140.144531 L 139.144531 137.675781 C 139 137.605469 138.878906 137.554688 138.734375 137.507812 L 127.011719 130.484375 C 126.125 129.957031 124.949219 130.242188 124.421875 131.128906 C 123.894531 132.019531 124.183594 133.191406 125.070312 133.71875 L 137.175781 141.007812 C 137.175781 141.007812 137.175781 141.007812 137.203125 141.007812 C 137.203125 141.007812 137.203125 141.007812 137.226562 141.03125 L 140.964844 143.1875 C 141.660156 143.597656 142.164062 144.242188 142.378906 145.035156 C 142.59375 145.800781 142.476562 146.617188 142.066406 147.3125 C 141.660156 148.007812 141.011719 148.511719 140.246094 148.726562 C 139.480469 148.941406 138.664062 148.824219 137.945312 148.4375 L 136.195312 147.433594 L 121.402344 138.203125 C 120.515625 137.652344 119.367188 137.914062 118.8125 138.800781 C 118.261719 139.6875 118.527344 140.839844 119.414062 141.390625 L 134.253906 150.644531 C 134.253906 150.644531 134.277344 150.644531 134.277344 150.644531 C 134.277344 150.644531 134.300781 150.667969 134.300781 150.667969 C 134.996094 151.078125 135.5 151.722656 135.691406 152.492188 C 135.90625 153.28125 135.785156 154.097656 135.402344 154.769531 L 135.234375 155.03125 C 134.398438 156.46875 132.550781 156.972656 131.113281 156.132812 L 125.671875 152.996094 L 118.980469 149.183594 C 118.382812 148.34375 117.617188 147.625 116.703125 147.097656 C 116.464844 146.953125 116.226562 146.832031 115.984375 146.738281 C 115.914062 146.714844 115.839844 146.6875 115.769531 146.640625 C 115.601562 146.570312 115.433594 146.496094 115.242188 146.449219 C 115.144531 146.425781 115.050781 146.402344 114.953125 146.378906 C 114.785156 146.328125 114.644531 146.304688 114.476562 146.257812 C 114.378906 146.234375 114.28125 146.210938 114.164062 146.210938 C 114.019531 146.1875 113.851562 146.160156 113.707031 146.160156 C 113.613281 146.160156 113.492188 146.136719 113.394531 146.136719 C 113.253906 146.136719 113.085938 146.136719 112.941406 146.136719 C 112.84375 146.136719 112.726562 146.136719 112.628906 146.136719 C 112.460938 146.136719 112.316406 146.160156 112.171875 146.1875 C 112.078125 146.1875 111.980469 146.210938 111.886719 146.210938 C 111.695312 146.234375 111.527344 146.28125 111.335938 146.328125 C 111.261719 146.355469 111.214844 146.355469 111.144531 146.378906 C 110.902344 146.449219 110.664062 146.523438 110.421875 146.617188 C 110.421875 146.617188 110.398438 146.617188 110.398438 146.617188 C 110.398438 146.617188 110.398438 146.59375 110.375 146.59375 C 110.253906 146.1875 110.113281 145.777344 109.945312 145.371094 C 109.894531 145.273438 109.847656 145.203125 109.800781 145.105469 C 109.609375 144.746094 109.417969 144.386719 109.175781 144.078125 C 109.152344 144.050781 109.152344 144.027344 109.128906 144.003906 C 108.867188 143.667969 108.578125 143.355469 108.242188 143.046875 C 108.171875 142.972656 108.097656 142.902344 108.003906 142.828125 C 107.667969 142.542969 107.308594 142.277344 106.921875 142.0625 C 106.539062 141.847656 106.132812 141.679688 105.75 141.535156 C 105.699219 141.511719 105.652344 141.488281 105.582031 141.488281 C 105.199219 141.367188 104.789062 141.269531 104.40625 141.199219 C 104.335938 141.199219 104.261719 141.175781 104.191406 141.175781 C 103.808594 141.128906 103.398438 141.105469 103.015625 141.128906 C 102.945312 141.128906 102.894531 141.128906 102.847656 141.128906 C 102.441406 141.152344 102.03125 141.199219 101.625 141.296875 C 101.601562 141.296875 101.601562 141.296875 101.578125 141.320312 C 101.363281 141.367188 101.121094 141.4375 100.90625 141.511719 C 100.882812 141.464844 100.882812 141.390625 100.859375 141.34375 C 100.835938 141.246094 100.808594 141.152344 100.785156 141.054688 C 100.738281 140.863281 100.667969 140.671875 100.59375 140.480469 C 100.570312 140.382812 100.523438 140.3125 100.5 140.214844 C 100.402344 140 100.28125 139.761719 100.164062 139.546875 C 100.140625 139.496094 100.113281 139.472656 100.089844 139.425781 C 99.949219 139.1875 99.78125 138.945312 99.613281 138.707031 C 99.5625 138.632812 99.515625 138.585938 99.46875 138.515625 C 99.324219 138.347656 99.203125 138.179688 99.058594 138.035156 C 98.988281 137.964844 98.917969 137.890625 98.84375 137.820312 C 98.699219 137.675781 98.53125 137.53125 98.390625 137.410156 C 98.316406 137.363281 98.246094 137.292969 98.171875 137.242188 C 97.933594 137.074219 97.695312 136.910156 97.429688 136.742188 C 97.070312 136.523438 96.6875 136.355469 96.304688 136.214844 C 96.253906 136.1875 96.207031 136.164062 96.160156 136.164062 C 95.800781 136.046875 95.441406 135.949219 95.058594 135.878906 C 94.984375 135.851562 94.914062 135.851562 94.839844 135.828125 C 94.480469 135.78125 94.121094 135.757812 93.761719 135.757812 C 93.691406 135.757812 93.617188 135.757812 93.523438 135.757812 C 93.164062 135.757812 92.804688 135.804688 92.445312 135.878906 C 92.417969 135.878906 92.394531 135.878906 92.394531 135.878906 C 92.394531 135.78125 92.371094 135.6875 92.347656 135.566406 C 92.324219 135.421875 92.324219 135.277344 92.300781 135.132812 C 92.277344 134.964844 92.226562 134.796875 92.203125 134.632812 C 92.179688 134.488281 92.132812 134.34375 92.109375 134.222656 C 92.058594 134.054688 92.011719 133.886719 91.941406 133.742188 C 91.890625 133.625 91.84375 133.480469 91.796875 133.359375 C 91.722656 133.191406 91.652344 133.046875 91.558594 132.878906 C 91.484375 132.761719 91.4375 132.640625 91.363281 132.519531 C 91.269531 132.378906 91.171875 132.210938 91.078125 132.066406 C 91.003906 131.96875 90.933594 131.851562 90.863281 131.753906 C 90.742188 131.609375 90.621094 131.464844 90.476562 131.324219 C 90.40625 131.226562 90.308594 131.128906 90.238281 131.058594 C 90.09375 130.914062 89.925781 130.769531 89.757812 130.628906 C 89.6875 130.554688 89.613281 130.484375 89.542969 130.4375 C 89.304688 130.242188 89.039062 130.074219 88.75 129.90625 C 88.34375 129.667969 87.9375 129.5 87.503906 129.355469 C 87.480469 129.355469 87.457031 129.332031 87.433594 129.332031 C 87.027344 129.1875 86.617188 129.09375 86.1875 129.046875 C 86.140625 129.046875 86.113281 129.019531 86.066406 129.019531 C 85.660156 128.972656 85.25 128.949219 84.84375 128.949219 C 84.796875 128.949219 84.75 128.949219 84.675781 128.949219 C 84.292969 128.972656 83.886719 129.019531 83.5 129.117188 C 83.453125 129.140625 83.382812 129.140625 83.332031 129.164062 C 82.949219 129.261719 82.589844 129.378906 82.230469 129.523438 C 82.183594 129.546875 82.113281 129.574219 82.0625 129.597656 C 81.703125 129.765625 81.367188 129.933594 81.03125 130.148438 C 80.984375 130.171875 80.9375 130.21875 80.890625 130.242188 C 80.554688 130.460938 80.242188 130.722656 79.953125 130.988281 C 79.90625 131.035156 79.882812 131.058594 79.832031 131.105469 C 79.546875 131.394531 79.257812 131.707031 79.019531 132.066406 C 79.019531 132.066406 78.996094 132.089844 78.996094 132.089844 C 78.324219 130.292969 76.957031 128.804688 75.160156 128.015625 L 71.945312 126.550781 L 75.613281 118.953125 L 83.5 102.652344 L 87.890625 104.832031 C 89.253906 105.503906 90.765625 105.71875 92.25 105.457031 L 102.058594 103.777344 C 103.640625 103.515625 105.246094 103.730469 106.683594 104.449219 L 109.800781 105.984375 L 95.703125 115.429688 C 94.335938 116.339844 93.5 117.800781 93.425781 119.457031 C 93.378906 120.488281 93.640625 121.46875 94.144531 122.308594 C 94.457031 122.8125 94.839844 123.269531 95.34375 123.652344 L 97.09375 125.042969 C 99.445312 126.9375 102.609375 127.605469 105.53125 126.816406 L 121.90625 122.332031 C 123.152344 121.996094 124.449219 122.164062 125.550781 122.789062 L 146.40625 134.558594 C 146.527344 134.796875 146.695312 135.015625 146.886719 135.183594 C 148.011719 136.164062 148.300781 137.769531 147.558594 139.042969 Z M 148.757812 131.609375 L 127.421875 119.550781 C 127.132812 119.382812 126.820312 119.238281 126.507812 119.121094 C 126.414062 119.074219 126.316406 119.046875 126.246094 119.023438 C 126.007812 118.929688 125.789062 118.855469 125.550781 118.785156 C 125.453125 118.761719 125.359375 118.738281 125.261719 118.710938 C 124.976562 118.640625 124.6875 118.59375 124.398438 118.546875 C 124.351562 118.546875 124.328125 118.519531 124.28125 118.519531 C 123.945312 118.472656 123.632812 118.472656 123.296875 118.449219 C 123.273438 118.449219 123.226562 118.449219 123.199219 118.449219 C 123.128906 118.449219 123.082031 118.449219 123.007812 118.472656 C 122.746094 118.472656 122.507812 118.496094 122.242188 118.519531 C 122.144531 118.519531 122.027344 118.546875 121.929688 118.570312 C 121.59375 118.617188 121.257812 118.6875 120.921875 118.785156 L 104.550781 123.269531 C 102.777344 123.746094 100.882812 123.339844 99.46875 122.210938 L 97.71875 120.824219 C 97.382812 120.558594 97.191406 120.152344 97.214844 119.71875 C 97.238281 119.289062 97.453125 118.90625 97.8125 118.664062 L 117.472656 105.457031 C 119.75 103.945312 122.554688 103.464844 125.214844 104.136719 L 135.042969 106.679688 C 137.082031 107.207031 139.214844 106.964844 141.085938 106.007812 L 142.59375 105.214844 L 154.222656 129.285156 Z M 169.347656 127.679688 L 161.03125 131.707031 C 160.40625 131.992188 159.640625 131.753906 159.351562 131.128906 L 142.5 96.25 C 142.1875 95.625 142.453125 94.859375 143.074219 94.570312 L 151.394531 90.542969 C 151.5625 90.449219 151.753906 90.425781 151.945312 90.425781 C 152.425781 90.425781 152.855469 90.6875 153.070312 91.144531 L 169.925781 126.023438 C 170.234375 126.625 169.972656 127.367188 169.347656 127.679688 Z M 149.835938 94.285156 C 148.011719 94.285156 146.550781 95.769531 146.550781 97.570312 C 146.550781 99.367188 148.039062 100.851562 149.835938 100.851562 C 151.632812 100.851562 153.121094 99.367188 153.121094 97.570312 C 153.121094 95.769531 151.65625 94.285156 149.835938 94.285156 Z M 149.835938 98.046875 C 149.570312 98.046875 149.355469 97.832031 149.355469 97.570312 C 149.355469 97.304688 149.570312 97.089844 149.835938 97.089844 C 150.097656 97.089844 150.316406 97.304688 150.316406 97.570312 C 150.316406 97.832031 150.097656 98.046875 149.835938 98.046875 Z M 75.351562 94.285156 C 73.527344 94.285156 72.066406 95.769531 72.066406 97.570312 C 72.066406 99.367188 73.554688 100.851562 75.351562 100.851562 C 77.148438 100.851562 78.636719 99.367188 78.636719 97.570312 C 78.636719 95.769531 77.171875 94.285156 75.351562 94.285156 Z M 75.351562 98.046875 C 75.085938 98.046875 74.871094 97.832031 74.871094 97.570312 C 74.871094 97.304688 75.085938 97.089844 75.351562 97.089844 C 75.613281 97.089844 75.832031 97.304688 75.832031 97.570312 C 75.832031 97.832031 75.613281 98.046875 75.351562 98.046875 Z M 75.351562 98.046875 " fill-opacity="1" fill-rule="nonzero"/></g><g clip-path="url(#f129c63873)"><g clip-path="url(#c6a64a4358)"><path fill="#27ae60" d="M 0 0.0585938 L 224.878906 0.0585938 L 224.878906 224.941406 L 0 224.941406 Z M 0 0.0585938 " fill-opacity="1" fill-rule="nonzero"/></g></g><g clip-path="url(#8bd5384c0e)"><path fill="#ffffff" d="M 112.441406 117.652344 C 97.625 117.652344 85.613281 105.640625 85.613281 90.824219 C 85.613281 76.011719 97.625 64 112.441406 64 C 127.257812 64 139.265625 76.011719 139.265625 90.824219 C 139.265625 94.84375 138.382812 98.65625 136.800781 102.078125 C 134.144531 102.363281 131.125 102.359375 127.867188 102.191406 C 127.15625 100.808594 125.714844 99.859375 124.054688 99.859375 C 121.6875 99.859375 119.765625 101.78125 119.765625 104.148438 C 119.765625 106.515625 121.6875 108.4375 124.054688 108.4375 C 125.800781 108.4375 127.304688 107.390625 127.972656 105.890625 C 130.316406 106 132.542969 106.023438 134.617188 105.925781 C 129.785156 113.007812 121.65625 117.652344 112.441406 117.652344 C 116 117.652344 119.480469 118.003906 122.847656 118.671875 L 112.441406 126.734375 L 102.03125 118.671875 C 105.398438 118.003906 108.878906 117.652344 112.441406 117.652344 Z M 146.09375 97.605469 L 144.234375 97.605469 L 144.234375 84.046875 L 146.808594 84.046875 C 142.136719 57.726562 112.503906 49.554688 93.480469 61.363281 C 86.152344 65.914062 80.429688 73.453125 78.289062 84.046875 L 79.492188 84.046875 C 79.800781 84.046875 80.09375 84.167969 80.308594 84.382812 C 80.527344 84.601562 80.648438 84.894531 80.648438 85.199219 L 80.648438 96.453125 C 80.648438 96.757812 80.527344 97.050781 80.308594 97.269531 C 80.09375 97.484375 79.800781 97.605469 79.492188 97.605469 L 73.15625 97.605469 C 71.71875 97.605469 70.550781 96.441406 70.550781 95 L 70.550781 86.652344 C 70.550781 85.210938 71.71875 84.046875 73.15625 84.046875 L 74.523438 84.046875 C 76.761719 71.921875 83.253906 63.367188 91.535156 58.226562 C 112.726562 45.070312 145.839844 54.371094 150.5625 84.046875 L 151.722656 84.046875 C 153.164062 84.046875 154.328125 85.210938 154.328125 86.652344 L 154.328125 95 C 154.328125 96.441406 153.164062 97.605469 151.722656 97.605469 L 149.96875 97.605469 C 149.96875 97.828125 149.925781 98.054688 149.839844 98.277344 C 148.644531 101.351562 146.210938 103.375 142.789062 104.570312 C 140.789062 105.269531 138.417969 105.671875 135.769531 105.859375 C 136.570312 104.617188 137.273438 103.308594 137.875 101.941406 C 138.4375 101.863281 138.980469 101.765625 139.503906 101.652344 C 142.5625 101 144.917969 99.828125 146.09375 97.605469 Z M 89.90625 122.660156 C 89.929688 122.710938 89.957031 122.761719 89.984375 122.8125 L 100.726562 141.953125 C 101.019531 142.480469 101.558594 142.832031 102.160156 142.886719 C 102.761719 142.945312 103.355469 142.703125 103.746094 142.238281 L 105 140.75 L 102.035156 155.125 C 101.917969 155.703125 102.082031 156.300781 102.476562 156.738281 L 109.949219 165.003906 L 60.984375 165.003906 C 60.652344 165.003906 60.339844 164.859375 60.121094 164.613281 C 59.898438 164.363281 59.796875 164.03125 59.839844 163.703125 C 62.246094 145.488281 73.886719 130.1875 89.90625 122.660156 Z M 91.8125 143.277344 C 91.8125 142.875 91.652344 142.488281 91.367188 142.203125 C 91.082031 141.917969 90.695312 141.757812 90.292969 141.757812 L 79.828125 141.757812 C 79.425781 141.757812 79.039062 141.917969 78.753906 142.203125 C 78.46875 142.488281 78.308594 142.875 78.308594 143.277344 L 78.308594 146.730469 C 78.308594 147.132812 78.46875 147.519531 78.753906 147.804688 C 79.039062 148.089844 79.425781 148.25 79.828125 148.25 L 90.292969 148.25 C 90.695312 148.25 91.082031 148.089844 91.367188 147.804688 C 91.652344 147.519531 91.8125 147.132812 91.8125 146.730469 Z M 114.929688 165.003906 L 122.402344 156.738281 C 122.800781 156.300781 122.960938 155.703125 122.84375 155.125 L 119.878906 140.75 L 121.132812 142.238281 C 121.523438 142.703125 122.117188 142.945312 122.71875 142.886719 C 123.320312 142.832031 123.859375 142.480469 124.15625 141.953125 L 134.894531 122.8125 C 134.921875 122.761719 134.949219 122.710938 134.972656 122.660156 C 150.992188 130.1875 162.632812 145.488281 165.039062 163.703125 C 165.078125 164.03125 164.976562 164.363281 164.757812 164.609375 C 164.539062 164.859375 164.226562 165 163.894531 165 C 156.011719 165.003906 114.929688 165.003906 114.929688 165.003906 Z M 109.992188 134.835938 L 112.441406 131.933594 L 114.886719 134.835938 L 119.039062 154.957031 L 112.441406 162.25 C 112.441406 162.25 105.839844 154.957031 105.839844 154.957031 Z M 106.878906 132.800781 C 106.871094 132.808594 106.863281 132.816406 106.855469 132.828125 L 102.640625 137.824219 C 102.640625 137.824219 94.230469 122.832031 94.230469 122.832031 C 95.875 122.207031 97.558594 121.664062 99.277344 121.207031 L 109.789062 129.347656 Z M 118.023438 132.828125 C 118.015625 132.820312 118.011719 132.808594 118.003906 132.800781 L 115.089844 129.347656 L 125.601562 121.207031 C 127.320312 121.664062 129.007812 122.207031 130.648438 122.832031 C 130.648438 122.832031 122.238281 137.824219 122.238281 137.824219 Z M 118.023438 132.828125 " fill-opacity="1" fill-rule="evenodd"/></g></svg>