<svg xmlns="http://www.w3.org/2000/svg" xmlns:xlink="http://www.w3.org/1999/xlink" width="300" zoomAndPan="magnify" viewBox="0 0 224.87999 225" height="300" preserveAspectRatio="xMidYMid meet" version="1.0"><defs><clipPath id="b8af7e7941"><path d="M 0 0.0585938 L 224.761719 0.0585938 L 224.761719 224.9375 L 0 224.9375 Z M 0 0.0585938 " clip-rule="nonzero"/></clipPath><clipPath id="cd260d8fa9"><path d="M 112.441406 0.0585938 C 50.339844 0.0585938 0 50.402344 0 112.5 C 0 174.597656 50.339844 224.941406 112.441406 224.941406 C 174.539062 224.941406 224.878906 174.597656 224.878906 112.5 C 224.878906 50.402344 174.539062 0.0585938 112.441406 0.0585938 Z M 112.441406 0.0585938 " clip-rule="nonzero"/></clipPath><clipPath id="647209fb0a"><path d="M 81 62.21875 L 153 62.21875 L 153 163 L 81 163 Z M 81 62.21875 " clip-rule="nonzero"/></clipPath><clipPath id="f32482c0e7"><path d="M 142 62.21875 L 166 62.21875 L 166 79 L 142 79 Z M 142 62.21875 " clip-rule="nonzero"/></clipPath><clipPath id="9bdc0fec2a"><path d="M 59.71875 91 L 103 91 L 103 134 L 59.71875 134 Z M 59.71875 91 " clip-rule="nonzero"/></clipPath></defs><g clip-path="url(#b8af7e7941)"><g clip-path="url(#cd260d8fa9)"><path fill="#27ae60" d="M 0 0.0585938 L 224.878906 0.0585938 L 224.878906 224.941406 L 0 224.941406 Z M 0 0.0585938 " fill-opacity="1" fill-rule="nonzero"/></g></g><g clip-path="url(#647209fb0a)"><path fill="#ffffff" d="M 128.804688 162.628906 C 127.878906 162.628906 127.078125 161.949219 126.957031 160.960938 C 126.894531 159.972656 127.632812 159.046875 128.621094 158.925781 C 136.460938 158.121094 142.382812 151.519531 142.382812 143.617188 L 142.382812 76.90625 C 142.382812 75.855469 143.1875 75.054688 144.234375 75.054688 C 145.222656 75.054688 146.085938 75.855469 146.085938 76.90625 L 146.085938 143.617188 C 146.085938 153.371094 138.742188 161.578125 128.992188 162.628906 C 128.929688 162.628906 128.867188 162.628906 128.804688 162.628906 Z M 83.695312 145.46875 C 82.644531 145.46875 81.84375 144.605469 81.84375 143.617188 L 81.84375 131.769531 C 81.84375 130.78125 82.644531 129.917969 83.695312 129.917969 C 84.679688 129.917969 85.546875 130.78125 85.546875 131.769531 L 85.546875 143.617188 C 85.546875 144.605469 84.679688 145.46875 83.695312 145.46875 Z M 83.695312 94.988281 C 82.644531 94.988281 81.84375 94.1875 81.84375 93.136719 L 81.84375 74.066406 C 81.84375 67.527344 87.148438 62.21875 93.691406 62.21875 L 150.40625 62.21875 C 151.457031 62.21875 152.257812 63.019531 152.257812 64.070312 C 152.257812 65.058594 151.457031 65.921875 150.40625 65.921875 L 93.691406 65.921875 C 89.1875 65.921875 85.546875 69.5625 85.546875 74.066406 L 85.546875 93.136719 C 85.546875 94.1875 84.679688 94.988281 83.695312 94.988281 Z M 83.695312 94.988281 " fill-opacity="1" fill-rule="evenodd"/></g><g clip-path="url(#f32482c0e7)"><path fill="#ffffff" d="M 163.242188 78.757812 L 144.234375 78.757812 C 143.1875 78.757812 142.382812 77.894531 142.382812 76.90625 L 142.382812 70.488281 C 142.382812 65.921875 146.085938 62.21875 150.652344 62.21875 L 156.824219 62.21875 C 161.390625 62.21875 165.09375 65.921875 165.09375 70.488281 L 165.09375 76.90625 C 165.09375 77.894531 164.230469 78.757812 163.242188 78.757812 Z M 146.085938 75.054688 L 161.390625 75.054688 L 161.390625 70.488281 C 161.390625 67.957031 159.292969 65.921875 156.824219 65.921875 L 150.652344 65.921875 C 148.121094 65.921875 146.085938 67.957031 146.085938 70.488281 Z M 146.085938 75.054688 " fill-opacity="1" fill-rule="evenodd"/></g><path fill="#ffffff" d="M 128.929688 162.75 L 88.320312 162.75 C 77.769531 162.75 69.191406 154.171875 69.191406 143.617188 C 69.191406 142.570312 69.992188 141.769531 71.042969 141.769531 L 128.929688 141.769531 C 129.671875 141.769531 130.289062 142.199219 130.597656 142.878906 C 130.90625 143.558594 130.78125 144.296875 130.289062 144.851562 C 125.660156 149.976562 125.597656 154.605469 130.101562 159.480469 C 130.535156 159.789062 130.78125 160.34375 130.78125 160.898438 C 130.78125 161.886719 129.980469 162.75 128.929688 162.75 Z M 73.015625 145.46875 C 73.941406 153.125 80.421875 159.046875 88.320312 159.046875 L 125.105469 159.046875 C 122.328125 154.605469 122.386719 149.976562 125.164062 145.46875 Z M 73.015625 145.46875 " fill-opacity="1" fill-rule="evenodd"/><g clip-path="url(#9bdc0fec2a)"><path fill="#ffffff" d="M 81.101562 133.804688 C 69.3125 133.804688 59.75 124.242188 59.75 112.453125 C 59.75 100.726562 69.3125 91.164062 81.101562 91.164062 C 92.828125 91.164062 102.394531 100.726562 102.394531 112.453125 C 102.394531 124.242188 92.828125 133.804688 81.101562 133.804688 Z M 81.101562 94.863281 C 71.351562 94.863281 63.453125 102.765625 63.453125 112.453125 C 63.453125 122.203125 71.351562 130.105469 81.101562 130.105469 C 90.789062 130.105469 98.691406 122.203125 98.691406 112.453125 C 98.691406 102.765625 90.789062 94.863281 81.101562 94.863281 Z M 81.101562 94.863281 " fill-opacity="1" fill-rule="evenodd"/></g><path fill="#ffffff" d="M 77.398438 120.414062 C 76.96875 120.414062 76.472656 120.230469 76.101562 119.859375 L 71.351562 115.046875 C 70.609375 114.367188 70.609375 113.195312 71.351562 112.453125 C 72.03125 111.714844 73.203125 111.714844 73.941406 112.453125 L 77.398438 115.910156 L 88.261719 105.109375 C 88.9375 104.367188 90.113281 104.367188 90.851562 105.109375 C 91.59375 105.851562 91.59375 107.023438 90.851562 107.703125 L 78.695312 119.859375 C 78.386719 120.230469 77.890625 120.414062 77.398438 120.414062 Z M 77.398438 120.414062 " fill-opacity="1" fill-rule="evenodd"/><path fill="#ffffff" d="M 132.695312 78.511719 L 101.40625 78.511719 C 100.355469 78.511719 99.554688 77.648438 99.554688 76.660156 C 99.554688 75.609375 100.355469 74.808594 101.40625 74.808594 L 132.695312 74.808594 C 133.683594 74.808594 134.546875 75.609375 134.546875 76.660156 C 134.546875 77.648438 133.683594 78.511719 132.695312 78.511719 Z M 132.695312 78.511719 " fill-opacity="1" fill-rule="evenodd"/><path fill="#ffffff" d="M 132.695312 89.371094 L 101.40625 89.371094 C 100.355469 89.371094 99.554688 88.507812 99.554688 87.519531 C 99.554688 86.472656 100.355469 85.667969 101.40625 85.667969 L 132.695312 85.667969 C 133.683594 85.667969 134.546875 86.472656 134.546875 87.519531 C 134.546875 88.507812 133.683594 89.371094 132.695312 89.371094 Z M 132.695312 89.371094 " fill-opacity="1" fill-rule="evenodd"/><path fill="#ffffff" d="M 132.695312 100.234375 L 110.972656 100.234375 C 109.984375 100.234375 109.121094 99.433594 109.121094 98.382812 C 109.121094 97.394531 109.984375 96.53125 110.972656 96.53125 L 132.695312 96.53125 C 133.683594 96.53125 134.546875 97.394531 134.546875 98.382812 C 134.546875 99.433594 133.683594 100.234375 132.695312 100.234375 Z M 132.695312 100.234375 " fill-opacity="1" fill-rule="evenodd"/><path fill="#ffffff" d="M 132.695312 111.15625 L 110.972656 111.15625 C 109.984375 111.15625 109.121094 110.292969 109.121094 109.304688 C 109.121094 108.257812 109.984375 107.453125 110.972656 107.453125 L 132.695312 107.453125 C 133.683594 107.453125 134.546875 108.257812 134.546875 109.304688 C 134.546875 110.292969 133.683594 111.15625 132.695312 111.15625 Z M 132.695312 111.15625 " fill-opacity="1" fill-rule="evenodd"/><path fill="#ffffff" d="M 132.695312 122.019531 L 110.972656 122.019531 C 109.984375 122.019531 109.121094 121.15625 109.121094 120.167969 C 109.121094 119.117188 109.984375 118.316406 110.972656 118.316406 L 132.695312 118.316406 C 133.683594 118.316406 134.546875 119.117188 134.546875 120.167969 C 134.546875 121.15625 133.683594 122.019531 132.695312 122.019531 Z M 132.695312 122.019531 " fill-opacity="1" fill-rule="evenodd"/><path fill="#ffffff" d="M 132.695312 132.882812 L 101.40625 132.882812 C 100.355469 132.882812 99.554688 132.078125 99.554688 131.03125 C 99.554688 130.042969 100.355469 129.179688 101.40625 129.179688 L 132.695312 129.179688 C 133.683594 129.179688 134.546875 130.042969 134.546875 131.03125 C 134.546875 132.078125 133.683594 132.882812 132.695312 132.882812 Z M 132.695312 132.882812 " fill-opacity="1" fill-rule="evenodd"/></svg>