<svg xmlns="http://www.w3.org/2000/svg" xmlns:xlink="http://www.w3.org/1999/xlink" width="300" zoomAndPan="magnify" viewBox="0 0 224.87999 225" height="300" preserveAspectRatio="xMidYMid meet" version="1.0"><defs><clipPath id="c06f1c8181"><path d="M 0 0.0585938 L 224.761719 0.0585938 L 224.761719 224.9375 L 0 224.9375 Z M 0 0.0585938 " clip-rule="nonzero"/></clipPath><clipPath id="2e06d515b1"><path d="M 112.441406 0.0585938 C 50.339844 0.0585938 0 50.402344 0 112.5 C 0 174.597656 50.339844 224.941406 112.441406 224.941406 C 174.539062 224.941406 224.878906 174.597656 224.878906 112.5 C 224.878906 50.402344 174.539062 0.0585938 112.441406 0.0585938 Z M 112.441406 0.0585938 " clip-rule="nonzero"/></clipPath><clipPath id="6abe9f7be3"><path d="M 47.03125 58 L 153.257812 58 L 153.257812 168 L 47.03125 168 Z M 47.03125 58 " clip-rule="nonzero"/></clipPath></defs><g clip-path="url(#c06f1c8181)"><g clip-path="url(#2e06d515b1)"><path fill="#27ae60" d="M 0 0.0585938 L 224.878906 0.0585938 L 224.878906 224.941406 L 0 224.941406 Z M 0 0.0585938 " fill-opacity="1" fill-rule="nonzero"/></g></g><g clip-path="url(#6abe9f7be3)"><path fill="#ffffff" d="M 148.480469 67.285156 L 133.871094 67.285156 C 133.265625 64.007812 130.402344 61.507812 126.953125 61.507812 L 124.691406 61.507812 C 122.191406 56.964844 115.210938 56.964844 112.6875 61.507812 L 110.425781 61.507812 C 106.980469 61.507812 104.089844 64.007812 103.507812 67.285156 L 88.898438 67.285156 C 86.421875 67.285156 84.394531 69.394531 84.394531 71.980469 L 84.394531 115.011719 C 83.058594 114.238281 75.390625 109.820312 73.882812 108.9375 C 73.34375 108.636719 72.695312 108.636719 72.15625 108.9375 L 47.957031 122.898438 C 47.421875 123.203125 47.097656 123.785156 47.097656 124.386719 L 47.097656 152.3125 C 47.097656 152.9375 47.421875 153.5 47.957031 153.800781 L 72.136719 167.761719 C 72.394531 167.914062 72.695312 168 72.996094 168 C 73.300781 168 73.601562 167.914062 73.859375 167.761719 L 85.644531 160.953125 C 86.464844 161.835938 87.628906 162.355469 88.878906 162.355469 L 148.480469 162.355469 C 150.980469 162.355469 153.003906 160.265625 153.003906 157.679688 L 153.003906 71.980469 C 153.027344 69.394531 150.980469 67.285156 148.480469 67.285156 Z M 110.425781 64.957031 L 113.789062 64.957031 C 114.519531 64.957031 115.167969 64.503906 115.402344 63.816406 C 115.921875 62.414062 117.214844 61.488281 118.699219 61.488281 C 120.1875 61.488281 121.480469 62.394531 121.996094 63.816406 C 122.257812 64.503906 122.902344 64.957031 123.613281 64.957031 L 126.976562 64.957031 C 128.957031 64.957031 130.550781 66.550781 130.550781 68.535156 L 130.550781 73.621094 L 106.847656 73.621094 C 106.847656 73.402344 106.847656 68.554688 106.847656 68.535156 C 106.847656 66.574219 108.464844 64.957031 110.425781 64.957031 Z M 143.609375 77.066406 L 143.609375 152.570312 L 98.898438 152.570312 C 98.960938 152.207031 98.898438 124.730469 98.917969 124.386719 C 98.917969 123.761719 98.597656 123.203125 98.058594 122.898438 L 93.8125 120.445312 L 93.8125 77.066406 Z M 87.84375 71.980469 C 87.84375 71.292969 88.316406 70.730469 88.898438 70.730469 L 103.402344 70.730469 L 103.402344 73.621094 L 92.992188 73.621094 C 91.550781 73.621094 90.363281 74.828125 90.363281 76.3125 L 90.363281 118.460938 C 89.847656 118.160156 88.339844 117.296875 87.84375 117.015625 Z M 82.867188 118.117188 C 78.40625 120.960938 67.546875 127.941406 63.214844 130.699219 L 61.878906 129.925781 L 81.53125 117.339844 Z M 73.019531 112.425781 L 78.191406 115.421875 L 58.539062 128.007812 L 52.289062 124.410156 Z M 61.597656 133.761719 L 61.597656 140.546875 L 60.21875 139.75 L 60.21875 132.964844 Z M 71.296875 163.28125 L 50.566406 151.320312 L 50.566406 127.382812 L 56.792969 130.980469 L 56.792969 140.761719 C 56.792969 141.386719 57.117188 141.949219 57.65625 142.25 L 62.480469 145.03125 C 63.582031 145.699219 65.109375 144.8125 65.066406 143.542969 C 65.066406 143.542969 65.066406 135.765625 65.066406 135.765625 L 71.296875 139.363281 Z M 73.019531 136.367188 C 71.964844 135.765625 67.566406 133.222656 66.597656 132.660156 L 86.226562 120.078125 C 87.433594 120.765625 90 122.253906 91.207031 122.964844 C 91.207031 122.964844 93.726562 124.410156 93.726562 124.410156 Z M 74.742188 163.28125 L 74.742188 139.339844 C 77.566406 137.703125 92.324219 129.191406 95.472656 127.382812 L 95.472656 151.320312 C 90.320312 154.273438 79.980469 160.265625 74.742188 163.28125 Z M 149.578125 157.679688 C 149.578125 158.347656 149.082031 158.90625 148.5 158.90625 L 89.203125 158.90625 L 89.566406 158.691406 L 94.199219 156.019531 L 144.40625 156.019531 C 145.851562 156.019531 147.035156 154.8125 147.035156 153.347656 L 147.035156 76.3125 C 147.035156 74.828125 145.851562 73.621094 144.40625 73.621094 L 133.976562 73.621094 L 133.976562 70.730469 L 148.457031 70.730469 C 149.039062 70.730469 149.535156 71.292969 149.535156 71.980469 L 149.535156 157.679688 Z M 115.664062 89.695312 L 130.464844 89.695312 C 131.414062 89.695312 132.191406 90.46875 132.191406 91.417969 C 132.191406 92.367188 131.414062 93.140625 130.464844 93.140625 L 115.664062 93.140625 C 114.714844 93.140625 113.9375 92.367188 113.9375 91.417969 C 113.9375 90.46875 114.714844 89.695312 115.664062 89.695312 Z M 115.664062 95.492188 L 136.476562 95.492188 C 137.425781 95.492188 138.203125 96.265625 138.203125 97.214844 C 138.203125 98.164062 137.425781 98.9375 136.476562 98.9375 L 115.664062 98.9375 C 114.714844 98.9375 113.9375 98.164062 113.9375 97.214844 C 113.9375 96.265625 114.714844 95.492188 115.664062 95.492188 Z M 115.664062 110.1875 L 130.464844 110.1875 C 131.414062 110.1875 132.191406 110.960938 132.191406 111.910156 C 132.191406 112.859375 131.414062 113.632812 130.464844 113.632812 L 115.664062 113.632812 C 114.714844 113.632812 113.9375 112.859375 113.9375 111.910156 C 113.9375 110.960938 114.714844 110.1875 115.664062 110.1875 Z M 136.476562 119.453125 L 115.664062 119.453125 C 114.714844 119.453125 113.9375 118.675781 113.9375 117.730469 C 113.9375 116.78125 114.714844 116.003906 115.664062 116.003906 L 136.476562 116.003906 C 138.761719 116.046875 138.742188 119.429688 136.476562 119.453125 Z M 97.367188 91.203125 C 97.367188 91.265625 97.347656 91.3125 97.347656 91.375 L 97.347656 97.257812 C 97.347656 99.328125 99.027344 101.007812 101.097656 101.007812 L 106.980469 101.007812 C 109.046875 101.007812 110.726562 99.328125 110.726562 97.257812 L 110.726562 91.375 C 110.726562 91.289062 110.707031 91.203125 110.707031 91.117188 L 115.835938 85.988281 C 117.40625 84.351562 115.015625 81.980469 113.398438 83.554688 C 113.398438 83.554688 108.808594 88.144531 108.808594 88.144531 C 108.273438 87.839844 107.648438 87.648438 106.980469 87.648438 L 101.097656 87.648438 C 100.34375 87.648438 99.652344 87.863281 99.070312 88.25 C 97.238281 87.496094 95.816406 89.953125 97.367188 91.203125 Z M 105.859375 91.074219 L 103.984375 92.949219 L 102.109375 91.074219 Z M 100.792969 94.652344 C 101.742188 95.46875 102.925781 97.214844 103.984375 97.128906 C 104.4375 97.128906 104.886719 96.957031 105.210938 96.632812 L 107.28125 94.5625 L 107.28125 97.300781 C 107.28125 97.472656 107.152344 97.601562 106.980469 97.601562 L 101.097656 97.601562 C 100.921875 97.601562 100.792969 97.472656 100.792969 97.300781 Z M 115.855469 106.328125 C 117.429688 104.691406 115.039062 102.320312 113.421875 103.894531 C 113.421875 103.894531 108.746094 108.570312 108.746094 108.570312 C 108.226562 108.289062 107.648438 108.117188 107 108.117188 L 101.117188 108.117188 C 100.429688 108.117188 99.78125 108.3125 99.222656 108.65625 C 97.347656 107.730469 95.796875 110.25 97.410156 111.566406 C 97.410156 111.671875 97.390625 111.757812 97.390625 111.867188 L 97.390625 117.75 C 97.390625 119.820312 99.070312 121.5 101.140625 121.5 L 107.023438 121.5 C 109.089844 121.5 110.769531 119.820312 110.769531 117.75 L 110.769531 111.867188 C 110.769531 111.738281 110.75 111.609375 110.726562 111.457031 Z M 105.707031 111.585938 L 103.984375 113.3125 L 102.257812 111.585938 Z M 107.28125 117.773438 C 107.28125 117.945312 107.152344 118.074219 106.980469 118.074219 L 101.097656 118.074219 C 100.921875 118.074219 100.792969 117.945312 100.792969 117.773438 L 100.792969 115.011719 C 101.742188 115.832031 102.925781 117.578125 103.984375 117.492188 C 104.4375 117.492188 104.886719 117.320312 105.210938 116.996094 L 107.28125 114.925781 Z M 107.28125 117.773438 " fill-opacity="1" fill-rule="nonzero"/></g></svg>