<svg xmlns="http://www.w3.org/2000/svg" xmlns:xlink="http://www.w3.org/1999/xlink" width="300" zoomAndPan="magnify" viewBox="0 0 224.87999 225" height="300" preserveAspectRatio="xMidYMid meet" version="1.0"><defs><clipPath id="94b89114c4"><path d="M 0 0.0585938 L 224.761719 0.0585938 L 224.761719 224.9375 L 0 224.9375 Z M 0 0.0585938 " clip-rule="nonzero"/></clipPath><clipPath id="a49b5571bd"><path d="M 112.441406 0.0585938 C 50.339844 0.0585938 0 50.402344 0 112.5 C 0 174.597656 50.339844 224.941406 112.441406 224.941406 C 174.539062 224.941406 224.878906 174.597656 224.878906 112.5 C 224.878906 50.402344 174.539062 0.0585938 112.441406 0.0585938 Z M 112.441406 0.0585938 " clip-rule="nonzero"/></clipPath><clipPath id="2ee8b5b88a"><path d="M 58.84375 53.242188 L 183.65625 53.242188 L 183.65625 175.398438 L 58.84375 175.398438 Z M 58.84375 53.242188 " clip-rule="nonzero"/></clipPath></defs><g clip-path="url(#94b89114c4)"><g clip-path="url(#a49b5571bd)"><path fill="#27ae60" d="M 0 0.0585938 L 224.878906 0.0585938 L 224.878906 224.941406 L 0 224.941406 Z M 0 0.0585938 " fill-opacity="1" fill-rule="nonzero"/></g></g><g clip-path="url(#2ee8b5b88a)"><path fill="#ffffff" d="M 62.871094 83.488281 L 62.871094 144.378906 C 62.871094 148.050781 65.871094 151.046875 69.546875 151.046875 L 124.628906 151.046875 C 125.742188 151.046875 126.644531 151.949219 126.644531 153.0625 C 126.644531 154.171875 125.742188 155.074219 124.628906 155.074219 L 69.546875 155.074219 C 63.648438 155.074219 58.84375 150.269531 58.84375 144.378906 L 58.84375 71.203125 C 58.84375 65.316406 63.648438 60.507812 69.546875 60.507812 L 72.15625 60.507812 L 72.15625 57.449219 C 72.15625 55.144531 74.039062 53.261719 76.34375 53.261719 L 80.648438 53.261719 C 82.957031 53.261719 84.832031 55.144531 84.832031 57.449219 L 84.832031 60.507812 L 96.296875 60.507812 L 96.296875 57.449219 C 96.296875 55.144531 98.183594 53.261719 100.488281 53.261719 L 104.792969 53.261719 C 107.097656 53.261719 108.976562 55.144531 108.976562 57.449219 L 108.976562 60.507812 L 120.441406 60.507812 L 120.441406 57.449219 C 120.441406 55.144531 122.324219 53.261719 124.628906 53.261719 L 128.933594 53.261719 C 131.242188 53.261719 133.117188 55.144531 133.117188 57.449219 L 133.117188 60.507812 L 144.582031 60.507812 L 144.582031 57.449219 C 144.582031 55.144531 146.46875 53.261719 148.773438 53.261719 L 153.078125 53.261719 C 155.382812 53.261719 157.257812 55.144531 157.257812 57.449219 L 157.257812 60.507812 L 159.875 60.507812 C 165.765625 60.507812 170.570312 65.316406 170.570312 71.203125 L 170.570312 121.921875 C 170.570312 123.035156 169.667969 123.9375 168.558594 123.9375 C 167.445312 123.9375 166.542969 123.035156 166.542969 121.921875 L 166.542969 83.488281 Z M 72.15625 64.535156 L 69.546875 64.535156 C 65.871094 64.535156 62.871094 67.53125 62.871094 71.203125 L 62.871094 79.460938 L 166.542969 79.460938 L 166.542969 71.203125 C 166.542969 67.53125 163.546875 64.535156 159.875 64.535156 L 157.257812 64.535156 L 157.257812 70.617188 C 157.257812 72.921875 155.382812 74.804688 153.078125 74.804688 L 148.773438 74.804688 C 146.46875 74.804688 144.582031 72.921875 144.582031 70.617188 L 144.582031 64.535156 L 133.117188 64.535156 L 133.117188 70.617188 C 133.117188 72.921875 131.242188 74.804688 128.933594 74.804688 L 124.628906 74.804688 C 122.324219 74.804688 120.441406 72.921875 120.441406 70.617188 L 120.441406 64.535156 L 108.976562 64.535156 L 108.976562 70.617188 C 108.976562 72.921875 107.097656 74.804688 104.792969 74.804688 L 100.488281 74.804688 C 98.183594 74.804688 96.296875 72.921875 96.296875 70.617188 L 96.296875 64.535156 L 84.832031 64.535156 L 84.832031 70.617188 C 84.832031 72.921875 82.957031 74.804688 80.648438 74.804688 L 76.34375 74.804688 C 74.039062 74.804688 72.15625 72.921875 72.15625 70.617188 Z M 100.488281 57.289062 C 100.398438 57.289062 100.324219 57.363281 100.324219 57.449219 L 100.324219 70.617188 C 100.324219 70.707031 100.398438 70.777344 100.488281 70.777344 L 104.792969 70.777344 C 104.878906 70.777344 104.949219 70.703125 104.949219 70.617188 L 104.949219 57.449219 C 104.949219 57.363281 104.878906 57.289062 104.792969 57.289062 Z M 76.34375 57.289062 C 76.257812 57.289062 76.183594 57.363281 76.183594 57.449219 L 76.183594 70.617188 C 76.183594 70.707031 76.257812 70.777344 76.34375 70.777344 L 80.648438 70.777344 C 80.738281 70.777344 80.804688 70.703125 80.804688 70.617188 L 80.804688 57.449219 C 80.804688 57.363281 80.738281 57.289062 80.648438 57.289062 Z M 124.628906 57.289062 C 124.539062 57.289062 124.46875 57.363281 124.46875 57.449219 L 124.46875 70.617188 C 124.46875 70.707031 124.539062 70.777344 124.628906 70.777344 L 128.933594 70.777344 C 129.023438 70.777344 129.089844 70.703125 129.089844 70.617188 L 129.089844 57.449219 C 129.089844 57.363281 129.023438 57.289062 128.933594 57.289062 Z M 148.773438 57.289062 C 148.683594 57.289062 148.609375 57.363281 148.609375 57.449219 L 148.609375 70.617188 C 148.609375 70.707031 148.683594 70.777344 148.773438 70.777344 L 153.078125 70.777344 C 153.164062 70.777344 153.230469 70.703125 153.230469 70.617188 L 153.230469 57.449219 C 153.230469 57.363281 153.164062 57.289062 153.078125 57.289062 Z M 114.050781 128.445312 L 96.234375 146.261719 C 95.09375 147.398438 93.503906 148.003906 91.800781 147.910156 C 90.210938 147.820312 88.644531 147.117188 87.457031 145.929688 L 83.246094 141.71875 C 82.058594 140.53125 81.355469 138.964844 81.265625 137.375 C 81.167969 135.667969 81.777344 134.082031 82.914062 132.941406 L 100.730469 115.125 C 100.519531 114.914062 100.40625 114.800781 100.40625 114.800781 C 95.597656 116.246094 90.175781 115.0625 86.394531 111.28125 C 82.5 107.386719 81.367188 101.808594 82.96875 96.921875 C 83.1875 96.257812 83.734375 95.753906 84.414062 95.589844 C 85.09375 95.425781 85.8125 95.628906 86.304688 96.125 L 94.066406 103.882812 L 97.902344 102.847656 C 97.902344 102.847656 98.9375 99.011719 98.9375 99.011719 L 91.179688 91.25 C 90.683594 90.753906 90.480469 90.039062 90.644531 89.359375 C 90.808594 88.675781 91.3125 88.128906 91.980469 87.914062 C 96.851562 86.328125 102.429688 87.460938 106.324219 91.351562 C 110.101562 95.132812 111.289062 100.554688 109.855469 105.347656 C 109.855469 105.347656 111.179688 106.675781 113.082031 108.578125 L 121.78125 99.878906 C 120.355469 98.535156 116.441406 95.207031 111.117188 93.65625 C 110.433594 93.457031 109.90625 92.914062 109.726562 92.222656 C 109.550781 91.535156 109.75 90.804688 110.253906 90.300781 C 114.589844 85.964844 121.09375 85.382812 127.546875 88.667969 C 128.273438 89.035156 130.445312 90.523438 131.011719 91.089844 L 140.441406 100.519531 L 141.269531 99.695312 C 142.054688 98.90625 143.328125 98.90625 144.117188 99.695312 L 148.785156 104.363281 C 149.570312 105.148438 149.570312 106.421875 148.785156 107.210938 L 138.117188 117.875 C 137.332031 118.664062 136.054688 118.664062 135.269531 117.875 L 130.601562 113.207031 C 129.816406 112.421875 129.816406 111.148438 130.601562 110.359375 L 131.433594 109.527344 L 129.296875 107.394531 L 120.597656 116.09375 C 123.769531 119.261719 126.410156 121.902344 126.410156 121.902344 C 129.707031 120.921875 133.292969 121.171875 136.445312 122.648438 C 137.449219 123.121094 137.882812 124.324219 137.410156 125.328125 C 136.9375 126.335938 135.738281 126.769531 134.730469 126.296875 C 132.183594 125.097656 129.234375 125.03125 126.636719 126.085938 C 125.886719 126.390625 125.027344 126.214844 124.453125 125.644531 L 106.109375 107.300781 C 105.539062 106.726562 105.363281 105.863281 105.671875 105.113281 C 107.15625 101.484375 106.417969 97.144531 103.476562 94.199219 C 101.640625 92.363281 99.277344 91.386719 96.886719 91.261719 L 102.609375 96.984375 C 103.121094 97.496094 103.316406 98.238281 103.128906 98.933594 L 101.492188 105.015625 C 101.304688 105.707031 100.765625 106.25 100.070312 106.4375 L 93.988281 108.074219 C 93.292969 108.261719 92.550781 108.0625 92.042969 107.554688 C 92.042969 107.554688 86.308594 101.820312 86.308594 101.820312 C 86.425781 104.222656 87.402344 106.59375 89.246094 108.433594 C 92.1875 111.375 96.523438 112.113281 100.164062 110.617188 C 100.917969 110.308594 101.78125 110.480469 102.355469 111.054688 L 120.699219 129.398438 C 121.269531 129.972656 121.445312 130.832031 121.140625 131.582031 C 119.652344 135.234375 120.378906 139.566406 123.332031 142.523438 C 124.023438 143.210938 124.785156 143.78125 125.601562 144.226562 C 125.683594 144.273438 125.769531 144.320312 125.855469 144.363281 C 126.84375 144.871094 127.234375 146.085938 126.726562 147.074219 C 126.21875 148.0625 125.007812 148.453125 124.015625 147.945312 C 123.898438 147.886719 123.777344 147.824219 123.660156 147.757812 C 122.519531 147.128906 121.449219 146.335938 120.484375 145.371094 C 116.691406 141.578125 115.519531 136.167969 116.957031 131.351562 C 116.957031 131.351562 115.777344 130.171875 114.050781 128.445312 Z M 103.578125 117.972656 L 85.761719 135.789062 C 85.414062 136.136719 85.257812 136.628906 85.285156 137.148438 C 85.324219 137.78125 85.621094 138.398438 86.09375 138.871094 L 90.304688 143.078125 C 90.777344 143.554688 91.394531 143.851562 92.027344 143.886719 C 92.546875 143.917969 93.039062 143.761719 93.386719 143.414062 L 111.199219 125.597656 C 108.644531 123.039062 105.730469 120.128906 103.578125 117.972656 Z M 115.929688 111.425781 C 116.527344 112.019531 117.136719 112.628906 117.75 113.246094 L 126.449219 104.546875 L 124.628906 102.726562 Z M 137.59375 103.367188 L 128.164062 93.9375 C 127.765625 93.539062 126.230469 92.515625 125.722656 92.257812 C 122.316406 90.523438 118.875 90.113281 116.039062 91.21875 C 121.457031 93.714844 124.953125 97.332031 125.292969 97.691406 L 134.28125 106.679688 Z M 142.691406 103.964844 C 142.691406 103.964844 134.875 111.785156 134.875 111.785156 C 134.875 111.785156 136.695312 113.605469 136.695312 113.605469 C 136.695312 113.605469 144.511719 105.785156 144.511719 105.785156 Z M 130.121094 129.359375 C 131.195312 129.074219 132.296875 129.710938 132.585938 130.785156 C 132.871094 131.859375 132.234375 132.964844 131.160156 133.25 C 131.160156 133.25 128.90625 133.851562 128.90625 133.851562 L 127.878906 137.699219 L 128.6875 138.507812 C 129.476562 139.292969 129.476562 140.570312 128.6875 141.355469 C 127.902344 142.140625 126.625 142.140625 125.839844 141.355469 L 124.210938 139.726562 C 123.703125 139.21875 123.503906 138.476562 123.691406 137.78125 L 125.316406 131.6875 C 125.503906 130.992188 126.046875 130.445312 126.742188 130.261719 Z M 162.644531 124.492188 C 164.394531 124.992188 166.082031 125.691406 167.675781 126.578125 L 170.898438 125.144531 C 171.660156 124.804688 172.550781 124.96875 173.140625 125.558594 L 178.046875 130.46875 C 178.636719 131.058594 178.800781 131.945312 178.464844 132.707031 C 178.464844 132.707031 177.035156 135.933594 177.035156 135.933594 C 177.921875 137.527344 178.621094 139.214844 179.121094 140.96875 L 182.410156 142.234375 C 183.1875 142.535156 183.699219 143.28125 183.699219 144.113281 L 183.699219 151.054688 C 183.699219 151.890625 183.1875 152.636719 182.410156 152.9375 C 182.410156 152.9375 179.121094 154.203125 179.121094 154.203125 C 178.621094 155.949219 177.917969 157.636719 177.035156 159.230469 L 178.464844 162.457031 C 178.800781 163.214844 178.636719 164.105469 178.046875 164.695312 L 173.140625 169.601562 C 172.550781 170.191406 171.660156 170.359375 170.898438 170.019531 C 170.898438 170.019531 167.675781 168.59375 167.675781 168.59375 C 166.085938 169.476562 164.398438 170.175781 162.644531 170.675781 L 161.378906 173.964844 C 161.082031 174.742188 160.335938 175.253906 159.5 175.253906 L 152.558594 175.253906 C 151.726562 175.253906 150.976562 174.742188 150.679688 173.964844 C 150.679688 173.964844 149.414062 170.675781 149.414062 170.675781 C 147.660156 170.175781 145.972656 169.472656 144.378906 168.589844 L 141.152344 170.019531 C 140.390625 170.359375 139.5 170.191406 138.914062 169.601562 L 134.003906 164.695312 C 133.414062 164.105469 133.25 163.214844 133.589844 162.453125 C 133.589844 162.453125 135.019531 159.230469 135.019531 159.230469 C 134.136719 157.640625 133.4375 155.953125 132.933594 154.203125 L 129.644531 152.9375 C 128.867188 152.636719 128.351562 151.890625 128.351562 151.054688 L 128.351562 144.113281 C 128.351562 143.28125 128.867188 142.535156 129.644531 142.234375 C 129.644531 142.234375 132.933594 140.96875 132.933594 140.96875 C 133.4375 139.214844 134.136719 137.527344 135.023438 135.933594 L 133.589844 132.710938 C 133.25 131.949219 133.414062 131.058594 134.003906 130.46875 L 138.914062 125.558594 C 139.503906 124.96875 140.394531 124.804688 141.15625 125.144531 C 141.15625 125.144531 144.378906 126.578125 144.378906 126.578125 C 145.972656 125.691406 147.65625 124.992188 149.40625 124.492188 L 150.679688 121.195312 C 150.980469 120.421875 151.726562 119.910156 152.558594 119.910156 L 159.5 119.910156 C 160.335938 119.910156 161.082031 120.421875 161.378906 121.199219 Z M 159.257812 126.902344 C 159.257812 126.902344 158.117188 123.9375 158.117188 123.9375 C 158.117188 123.9375 153.941406 123.9375 153.941406 123.9375 L 152.792969 126.90625 C 152.554688 127.523438 152.027344 127.984375 151.382812 128.140625 C 149.324219 128.628906 147.363281 129.441406 145.558594 130.550781 C 144.996094 130.898438 144.292969 130.945312 143.6875 130.675781 L 140.78125 129.386719 C 140.78125 129.386719 137.832031 132.339844 137.832031 132.339844 L 139.121094 135.242188 C 139.390625 135.847656 139.34375 136.550781 138.996094 137.117188 C 137.882812 138.917969 137.070312 140.882812 136.574219 142.949219 C 136.421875 143.59375 135.960938 144.117188 135.339844 144.355469 C 135.339844 144.355469 132.378906 145.496094 132.378906 145.496094 L 132.378906 149.671875 L 135.339844 150.8125 C 135.957031 151.050781 136.421875 151.578125 136.574219 152.222656 C 137.070312 154.277344 137.882812 156.246094 138.996094 158.042969 C 139.34375 158.609375 139.390625 159.3125 139.121094 159.921875 C 139.121094 159.921875 137.832031 162.824219 137.832031 162.824219 C 137.832031 162.824219 140.785156 165.777344 140.785156 165.777344 L 143.6875 164.492188 C 144.292969 164.222656 144.992188 164.269531 145.554688 164.617188 C 147.359375 165.722656 149.324219 166.542969 151.386719 167.03125 C 152.035156 167.183594 152.5625 167.644531 152.800781 168.265625 C 152.800781 168.265625 153.941406 171.226562 153.941406 171.226562 L 158.117188 171.226562 L 159.257812 168.265625 C 159.496094 167.648438 160.023438 167.183594 160.671875 167.03125 C 162.726562 166.542969 164.695312 165.730469 166.488281 164.621094 C 167.054688 164.269531 167.757812 164.222656 168.363281 164.492188 C 168.363281 164.492188 171.269531 165.777344 171.269531 165.777344 C 171.269531 165.777344 174.222656 162.824219 174.222656 162.824219 L 172.9375 159.917969 C 172.667969 159.3125 172.714844 158.617188 173.0625 158.050781 C 174.167969 156.246094 174.988281 154.285156 175.476562 152.226562 C 175.628906 151.582031 176.089844 151.050781 176.710938 150.8125 C 176.710938 150.8125 179.671875 149.671875 179.671875 149.671875 L 179.671875 145.496094 L 176.710938 144.355469 C 176.089844 144.117188 175.628906 143.589844 175.476562 142.941406 C 174.988281 140.878906 174.175781 138.917969 173.0625 137.117188 C 172.714844 136.550781 172.667969 135.851562 172.9375 135.242188 C 172.9375 135.242188 174.222656 132.339844 174.222656 132.339844 C 174.222656 132.339844 171.269531 129.386719 171.269531 129.386719 L 168.367188 130.675781 C 167.757812 130.945312 167.058594 130.898438 166.492188 130.550781 C 164.6875 129.441406 162.726562 128.628906 160.671875 128.140625 C 160.023438 127.984375 159.496094 127.523438 159.257812 126.902344 Z M 165.519531 158.046875 C 163.011719 160.324219 159.679688 161.710938 156.027344 161.710938 C 148.222656 161.710938 141.902344 155.386719 141.902344 147.582031 C 141.902344 139.777344 148.222656 133.457031 156.027344 133.457031 C 161.644531 133.457031 166.5 136.734375 168.777344 141.484375 C 169.257812 142.488281 168.832031 143.691406 167.832031 144.171875 C 166.828125 144.652344 165.625 144.226562 165.144531 143.226562 C 163.515625 139.828125 160.046875 137.484375 156.027344 137.484375 C 150.449219 137.484375 145.929688 142.003906 145.929688 147.582031 C 145.929688 153.160156 150.449219 157.683594 156.027344 157.683594 C 158.460938 157.683594 160.695312 156.820312 162.441406 155.386719 C 161.371094 155.609375 160.316406 154.933594 160.070312 153.867188 C 159.820312 152.78125 160.496094 151.699219 161.582031 151.453125 L 167.164062 150.167969 C 167.769531 150.03125 168.402344 150.175781 168.882812 150.566406 C 169.363281 150.957031 169.640625 151.546875 169.628906 152.164062 L 169.535156 157.894531 C 169.519531 159.003906 168.601562 159.890625 167.492188 159.875 C 166.453125 159.855469 165.613281 159.058594 165.519531 158.046875 Z M 165.519531 158.046875 " fill-opacity="1" fill-rule="evenodd"/></g></svg>