<svg xmlns="http://www.w3.org/2000/svg" xmlns:xlink="http://www.w3.org/1999/xlink" width="300" zoomAndPan="magnify" viewBox="0 0 224.87999 225" height="300" preserveAspectRatio="xMidYMid meet" version="1.0"><defs><clipPath id="ad8b98e169"><path d="M 0 0.0585938 L 224.761719 0.0585938 L 224.761719 224.9375 L 0 224.9375 Z M 0 0.0585938 " clip-rule="nonzero"/></clipPath><clipPath id="acf43b8564"><path d="M 112.441406 0.0585938 C 50.339844 0.0585938 0 50.402344 0 112.5 C 0 174.597656 50.339844 224.941406 112.441406 224.941406 C 174.539062 224.941406 224.878906 174.597656 224.878906 112.5 C 224.878906 50.402344 174.539062 0.0585938 112.441406 0.0585938 Z M 112.441406 0.0585938 " clip-rule="nonzero"/></clipPath><clipPath id="e56e86d84a"><path d="M 76 54.824219 L 150 54.824219 L 150 88 L 76 88 Z M 76 54.824219 " clip-rule="nonzero"/></clipPath><clipPath id="dec1a2053d"><path d="M 142 133 L 177.789062 133 L 177.789062 169.015625 L 142 169.015625 Z M 142 133 " clip-rule="nonzero"/></clipPath><clipPath id="2b139f5d6a"><path d="M 63.597656 67 L 138 67 L 138 169.015625 L 63.597656 169.015625 Z M 63.597656 67 " clip-rule="nonzero"/></clipPath></defs><g clip-path="url(#ad8b98e169)"><g clip-path="url(#acf43b8564)"><path fill="#27ae60" d="M 0 0.0585938 L 224.878906 0.0585938 L 224.878906 224.941406 L 0 224.941406 Z M 0 0.0585938 " fill-opacity="1" fill-rule="nonzero"/></g></g><path fill="#ffffff" d="M 140.921875 153.859375 L 140.921875 157.453125 L 144.515625 157.453125 C 145.234375 157.453125 145.953125 157.273438 146.585938 157.003906 L 143.976562 153.859375 Z M 140.921875 153.859375 " fill-opacity="1" fill-rule="nonzero"/><g clip-path="url(#e56e86d84a)"><path fill="#ffffff" d="M 79.78125 60.351562 C 79.78125 59.363281 80.589844 58.554688 81.582031 58.554688 L 144.515625 58.554688 C 145.503906 58.554688 146.316406 59.363281 146.316406 60.351562 L 146.316406 84.628906 C 147.484375 85.527344 148.5625 86.515625 149.640625 87.59375 C 149.730469 87.683594 149.820312 87.773438 149.910156 87.863281 L 149.910156 60.351562 C 149.910156 57.386719 147.484375 54.957031 144.515625 54.957031 L 81.582031 54.957031 C 78.613281 54.957031 76.1875 57.386719 76.1875 60.351562 L 76.1875 63.949219 L 79.78125 63.949219 Z M 79.78125 60.351562 " fill-opacity="1" fill-rule="nonzero"/></g><g clip-path="url(#dec1a2053d)"><path fill="#ffffff" d="M 174.636719 150.082031 L 155.214844 133.898438 C 154.585938 134.886719 153.957031 135.964844 153.238281 136.863281 L 155.394531 138.664062 L 147.394531 146.664062 L 145.59375 144.507812 C 144.605469 145.226562 143.617188 145.945312 142.628906 146.484375 L 158.8125 165.90625 C 160.789062 168.332031 163.757812 169.773438 166.902344 169.953125 C 169.421875 170.042969 172.027344 169.320312 174.097656 167.792969 C 177.0625 165.636719 178.953125 161.859375 178.769531 158.082031 C 178.5 155.027344 177.0625 152.148438 174.636719 150.082031 Z M 149.640625 149.453125 L 158.09375 141 L 161.6875 143.96875 L 152.609375 153.046875 Z M 172.835938 164.195312 C 171.308594 165.726562 169.242188 166.535156 166.992188 166.445312 C 164.835938 166.355469 162.859375 165.367188 161.507812 163.746094 L 154.945312 155.925781 L 164.476562 146.394531 L 172.296875 152.957031 C 174.007812 154.308594 174.90625 156.285156 174.996094 158.441406 C 175.175781 160.601562 174.367188 162.667969 172.835938 164.195312 Z M 172.835938 164.195312 " fill-opacity="1" fill-rule="nonzero"/></g><path fill="#ffffff" d="M 76.1875 154.757812 L 124.738281 154.757812 C 125.726562 154.757812 126.535156 153.949219 126.535156 152.957031 C 126.535156 152.597656 126.445312 152.238281 126.175781 151.878906 C 125.097656 151.96875 124.015625 152.058594 122.9375 152.058594 C 120.242188 152.058594 117.542969 151.789062 114.847656 151.160156 L 76.1875 151.160156 C 75.195312 151.160156 74.386719 151.96875 74.386719 152.957031 C 74.386719 153.949219 75.195312 154.757812 76.1875 154.757812 Z M 76.1875 154.757812 " fill-opacity="1" fill-rule="nonzero"/><path fill="#ffffff" d="M 76.1875 141.269531 L 96.503906 141.269531 C 96.414062 141.179688 96.324219 141.089844 96.234375 141 C 95.15625 139.921875 94.167969 138.84375 93.269531 137.675781 L 76.1875 137.675781 C 75.195312 137.675781 74.386719 138.484375 74.386719 139.472656 C 74.386719 140.460938 75.195312 141.269531 76.1875 141.269531 Z M 76.1875 141.269531 " fill-opacity="1" fill-rule="nonzero"/><path fill="#ffffff" d="M 76.1875 127.785156 L 87.695312 127.785156 C 87.246094 126.617188 86.886719 125.445312 86.527344 124.1875 L 76.1875 124.1875 C 75.195312 124.1875 74.386719 124.996094 74.386719 125.984375 C 74.386719 126.976562 75.195312 127.785156 76.1875 127.785156 Z M 76.1875 127.785156 " fill-opacity="1" fill-rule="nonzero"/><path fill="#ffffff" d="M 76.1875 114.296875 L 85.175781 114.296875 C 85.175781 113.128906 85.265625 111.871094 85.355469 110.703125 L 76.1875 110.703125 C 75.195312 110.703125 74.386719 111.511719 74.386719 112.5 C 74.386719 113.488281 75.195312 114.296875 76.1875 114.296875 Z M 76.1875 114.296875 " fill-opacity="1" fill-rule="nonzero"/><path fill="#ffffff" d="M 76.1875 100.8125 L 87.695312 100.8125 C 88.144531 99.554688 88.683594 98.382812 89.3125 97.214844 L 76.1875 97.214844 C 75.195312 97.214844 74.386719 98.023438 74.386719 99.015625 C 74.386719 100.003906 75.195312 100.8125 76.1875 100.8125 Z M 76.1875 100.8125 " fill-opacity="1" fill-rule="nonzero"/><path fill="#ffffff" d="M 76.1875 86.425781 L 97.496094 86.425781 C 98.933594 85.078125 100.460938 83.910156 102.078125 82.832031 L 76.1875 82.832031 C 75.195312 82.832031 74.386719 83.640625 74.386719 84.628906 C 74.386719 85.617188 75.195312 86.425781 76.1875 86.425781 Z M 76.1875 86.425781 " fill-opacity="1" fill-rule="nonzero"/><g clip-path="url(#2b139f5d6a)"><path fill="#ffffff" d="M 133.726562 164.648438 C 133.726562 165.636719 132.917969 166.445312 131.929688 166.445312 L 68.992188 166.445312 C 68.003906 166.445312 67.195312 165.636719 67.195312 164.648438 L 67.195312 72.941406 C 67.195312 71.953125 68.003906 71.140625 68.992188 71.140625 L 131.929688 71.140625 C 132.917969 71.140625 133.726562 71.953125 133.726562 72.941406 L 133.726562 78.15625 C 134.984375 78.515625 136.15625 78.964844 137.324219 79.414062 L 137.324219 72.941406 C 137.324219 69.972656 134.894531 67.546875 131.929688 67.546875 L 68.992188 67.546875 C 66.027344 67.546875 63.597656 69.972656 63.597656 72.941406 L 63.597656 164.648438 C 63.597656 167.613281 66.027344 170.042969 68.992188 170.042969 L 131.929688 170.042969 C 134.894531 170.042969 137.324219 167.613281 137.324219 164.648438 L 137.324219 149.183594 C 136.15625 149.632812 134.984375 150.082031 133.726562 150.441406 Z M 133.726562 164.648438 " fill-opacity="1" fill-rule="nonzero"/></g><path fill="#ffffff" d="M 147.125 90.113281 C 133.816406 76.804688 112.148438 76.804688 98.84375 90.113281 C 85.535156 103.417969 85.535156 125.085938 98.84375 138.394531 C 105.40625 145.136719 114.21875 148.464844 122.9375 148.464844 C 131.660156 148.464844 140.46875 145.136719 147.125 138.484375 C 160.429688 125.175781 160.429688 103.417969 147.125 90.113281 Z M 101.359375 135.875 C 89.402344 124.007812 89.402344 104.589844 101.359375 92.71875 C 107.292969 86.785156 115.117188 83.820312 122.9375 83.820312 C 130.761719 83.820312 138.582031 86.785156 144.515625 92.71875 C 156.472656 104.679688 156.472656 124.007812 144.515625 135.964844 C 132.648438 147.832031 113.226562 147.832031 101.359375 135.875 Z M 101.359375 135.875 " fill-opacity="1" fill-rule="nonzero"/><path fill="#ffffff" d="M 137.414062 100.273438 C 136.605469 99.734375 135.4375 99.914062 134.894531 100.722656 L 118.621094 124.1875 L 110.621094 117.175781 C 109.902344 116.546875 108.734375 116.636719 108.105469 117.355469 C 107.472656 118.074219 107.5625 119.242188 108.285156 119.871094 L 117.8125 128.234375 C 118.171875 128.503906 118.53125 128.683594 118.984375 128.683594 C 119.074219 128.683594 119.164062 128.683594 119.164062 128.683594 C 119.703125 128.59375 120.152344 128.324219 120.421875 127.964844 L 137.863281 102.789062 C 138.492188 101.890625 138.222656 100.8125 137.414062 100.273438 Z M 137.414062 100.273438 " fill-opacity="1" fill-rule="nonzero"/></svg>