<svg xmlns="http://www.w3.org/2000/svg" xmlns:xlink="http://www.w3.org/1999/xlink" width="300" zoomAndPan="magnify" viewBox="0 0 224.87999 225" height="300" preserveAspectRatio="xMidYMid meet" version="1.0"><defs><clipPath id="ea834106e4"><path d="M 0 0.0585938 L 224.761719 0.0585938 L 224.761719 224.9375 L 0 224.9375 Z M 0 0.0585938 " clip-rule="nonzero"/></clipPath><clipPath id="21f71934e2"><path d="M 112.441406 0.0585938 C 50.339844 0.0585938 0 50.402344 0 112.5 C 0 174.597656 50.339844 224.941406 112.441406 224.941406 C 174.539062 224.941406 224.878906 174.597656 224.878906 112.5 C 224.878906 50.402344 174.539062 0.0585938 112.441406 0.0585938 Z M 112.441406 0.0585938 " clip-rule="nonzero"/></clipPath><clipPath id="fdd77b11ad"><path d="M 54.035156 54.09375 L 171 54.09375 L 171 171 L 54.035156 171 Z M 54.035156 54.09375 " clip-rule="nonzero"/></clipPath></defs><g clip-path="url(#ea834106e4)"><g clip-path="url(#21f71934e2)"><path fill="#27ae60" d="M 0 0.0585938 L 224.878906 0.0585938 L 224.878906 224.941406 L 0 224.941406 Z M 0 0.0585938 " fill-opacity="1" fill-rule="nonzero"/></g></g><g clip-path="url(#fdd77b11ad)"><path fill="#fefefe" d="M 112.433594 170.890625 C 80.230469 170.890625 54.035156 144.695312 54.035156 112.492188 C 54.035156 80.292969 80.230469 54.09375 112.433594 54.09375 C 144.636719 54.09375 170.832031 80.292969 170.832031 112.492188 C 170.832031 144.695312 144.636719 170.890625 112.433594 170.890625 Z M 112.433594 58.960938 C 82.917969 58.960938 58.902344 82.976562 58.902344 112.492188 C 58.902344 142.007812 82.917969 166.027344 112.433594 166.027344 C 141.949219 166.027344 165.964844 142.007812 165.964844 112.492188 C 165.964844 82.976562 141.949219 58.960938 112.433594 58.960938 Z M 112.433594 58.960938 " fill-opacity="1" fill-rule="nonzero"/></g><path fill="#fefefe" d="M 129.320312 146.574219 C 124.375 146.574219 119.289062 145.253906 115.226562 143.984375 C 107.238281 141.488281 99.855469 137.015625 93.882812 131.046875 C 85.851562 123.015625 80.375 112.289062 78.855469 101.621094 C 78.171875 96.832031 77.773438 90.707031 80.773438 85.820312 C 83.574219 81.261719 88.640625 78.429688 94 78.429688 C 94.933594 78.429688 95.839844 78.53125 96.710938 78.675781 C 96.753906 78.6875 96.800781 78.691406 96.847656 78.707031 C 99.863281 79.265625 102.253906 81.847656 102.675781 85.015625 L 104.710938 100.226562 C 105.140625 103.4375 103.4375 106.613281 100.558594 107.953125 C 100.242188 108.097656 99.921875 108.242188 99.589844 108.367188 C 101.289062 112.085938 103.621094 115.4375 106.550781 118.367188 C 109.480469 121.296875 112.832031 123.632812 116.554688 125.332031 C 116.675781 125.003906 116.820312 124.679688 116.960938 124.363281 C 118.304688 121.488281 121.484375 119.773438 124.699219 120.21875 L 139.90625 122.25 C 143.097656 122.675781 145.703125 125.109375 146.238281 128.164062 C 146.398438 129.074219 146.5 129.984375 146.5 130.921875 C 146.5 135.980469 144.03125 140.730469 139.894531 143.628906 C 136.804688 145.800781 133.105469 146.574219 129.320312 146.574219 Z M 94 83.292969 C 90.324219 83.292969 86.839844 85.238281 84.917969 88.367188 C 82.734375 91.929688 83.101562 96.953125 83.671875 100.9375 C 85.046875 110.578125 90.019531 120.300781 97.324219 127.601562 C 102.738281 133.015625 109.429688 137.074219 116.675781 139.332031 C 126.402344 142.363281 133.082031 142.472656 137.101562 139.644531 C 139.894531 137.6875 141.632812 134.339844 141.632812 130.921875 C 141.632812 130.257812 141.550781 129.625 141.449219 129.015625 C 141.273438 128.003906 140.378906 127.214844 139.269531 127.070312 L 124.058594 125.03125 C 122.949219 124.910156 121.832031 125.445312 121.386719 126.40625 C 121.007812 127.21875 120.734375 128.105469 120.570312 129.035156 C 120.445312 129.746094 120.011719 130.359375 119.386719 130.722656 C 118.765625 131.078125 118.011719 131.148438 117.339844 130.898438 C 111.964844 128.921875 107.1875 125.863281 103.128906 121.804688 C 99.070312 117.75 96.007812 112.964844 94.035156 107.589844 C 93.785156 106.910156 93.847656 106.164062 94.207031 105.535156 C 94.570312 104.910156 95.1875 104.480469 95.898438 104.355469 C 96.820312 104.195312 97.707031 103.917969 98.519531 103.539062 C 99.484375 103.089844 100.054688 101.996094 99.902344 100.867188 L 97.855469 85.660156 C 97.707031 84.546875 96.914062 83.648438 95.929688 83.484375 C 95.765625 83.449219 95.601562 83.40625 95.445312 83.34375 C 95.300781 83.382812 94.660156 83.292969 94 83.292969 Z M 94 83.292969 " fill-opacity="1" fill-rule="nonzero"/></svg>