<svg xmlns="http://www.w3.org/2000/svg" xmlns:xlink="http://www.w3.org/1999/xlink" width="300" zoomAndPan="magnify" viewBox="0 0 224.87999 225" height="300" preserveAspectRatio="xMidYMid meet" version="1.0"><defs><clipPath id="85f74f31ce"><path d="M 0 0.0585938 L 224.761719 0.0585938 L 224.761719 224.9375 L 0 224.9375 Z M 0 0.0585938 " clip-rule="nonzero"/></clipPath><clipPath id="9ecbebcfde"><path d="M 112.441406 0.0585938 C 50.339844 0.0585938 0 50.402344 0 112.5 C 0 174.597656 50.339844 224.941406 112.441406 224.941406 C 174.539062 224.941406 224.878906 174.597656 224.878906 112.5 C 224.878906 50.402344 174.539062 0.0585938 112.441406 0.0585938 Z M 112.441406 0.0585938 " clip-rule="nonzero"/></clipPath><clipPath id="11c0954f8a"><path d="M 54.582031 54.640625 L 170.300781 54.640625 L 170.300781 170.359375 L 54.582031 170.359375 Z M 54.582031 54.640625 " clip-rule="nonzero"/></clipPath></defs><g clip-path="url(#85f74f31ce)"><g clip-path="url(#9ecbebcfde)"><path fill="#27ae60" d="M 0 0.0585938 L 224.878906 0.0585938 L 224.878906 224.941406 L 0 224.941406 Z M 0 0.0585938 " fill-opacity="1" fill-rule="nonzero"/></g></g><g clip-path="url(#11c0954f8a)"><path fill="#fefefe" d="M 112.441406 54.640625 C 80.535156 54.640625 54.582031 80.597656 54.582031 112.5 C 54.582031 144.402344 80.535156 170.359375 112.441406 170.359375 C 144.34375 170.359375 170.300781 144.402344 170.300781 112.5 C 170.300781 80.597656 144.34375 54.640625 112.441406 54.640625 Z M 112.441406 164.933594 C 83.527344 164.933594 60.003906 141.414062 60.003906 112.5 C 60.003906 83.585938 83.527344 60.066406 112.441406 60.066406 C 141.351562 60.066406 164.875 83.585938 164.875 112.5 C 164.875 141.414062 141.351562 164.933594 112.441406 164.933594 Z M 139.632812 88.65625 L 85.246094 88.65625 C 81.609375 88.65625 78.652344 91.613281 78.652344 95.253906 L 78.652344 129.746094 C 78.652344 133.386719 81.609375 136.34375 85.246094 136.34375 L 139.632812 136.34375 C 143.269531 136.34375 146.230469 133.386719 146.230469 129.746094 L 146.230469 95.253906 C 146.230469 91.613281 143.269531 88.65625 139.632812 88.65625 Z M 135.542969 94.078125 L 112.441406 112.425781 L 89.335938 94.078125 Z M 139.632812 130.921875 L 85.246094 130.921875 C 84.601562 130.921875 84.074219 130.394531 84.074219 129.746094 L 84.074219 96.828125 L 110.753906 118.015625 C 111.246094 118.40625 111.84375 118.601562 112.441406 118.601562 C 113.035156 118.601562 113.632812 118.40625 114.125 118.015625 L 140.804688 96.828125 L 140.804688 129.746094 C 140.804688 130.394531 140.277344 130.921875 139.632812 130.921875 Z M 139.632812 130.921875 " fill-opacity="1" fill-rule="nonzero"/></g></svg>