<svg xmlns="http://www.w3.org/2000/svg" xmlns:xlink="http://www.w3.org/1999/xlink" width="300" zoomAndPan="magnify" viewBox="0 0 224.87999 225" height="300" preserveAspectRatio="xMidYMid meet" version="1.0"><defs><clipPath id="0c1c6d50e8"><path d="M 0 0.0585938 L 224.761719 0.0585938 L 224.761719 224.9375 L 0 224.9375 Z M 0 0.0585938 " clip-rule="nonzero"/></clipPath><clipPath id="043b7785d2"><path d="M 112.441406 0.0585938 C 50.339844 0.0585938 0 50.402344 0 112.5 C 0 174.597656 50.339844 224.941406 112.441406 224.941406 C 174.539062 224.941406 224.878906 174.597656 224.878906 112.5 C 224.878906 50.402344 174.539062 0.0585938 112.441406 0.0585938 Z M 112.441406 0.0585938 " clip-rule="nonzero"/></clipPath><clipPath id="03e42b58e6"><path d="M 53.046875 54.640625 L 168.765625 54.640625 L 168.765625 170.359375 L 53.046875 170.359375 Z M 53.046875 54.640625 " clip-rule="nonzero"/></clipPath><clipPath id="3c8d231307"><path d="M 76.210938 81.476562 L 149 81.476562 L 149 144 L 76.210938 144 Z M 76.210938 81.476562 " clip-rule="nonzero"/></clipPath></defs><g clip-path="url(#0c1c6d50e8)"><g clip-path="url(#043b7785d2)"><path fill="#27ae60" d="M 0 0.0585938 L 224.878906 0.0585938 L 224.878906 224.941406 L 0 224.941406 Z M 0 0.0585938 " fill-opacity="1" fill-rule="nonzero"/></g></g><g clip-path="url(#03e42b58e6)"><path fill="#fefefe" d="M 110.90625 170.359375 C 78.9375 170.359375 53.046875 144.285156 53.046875 112.5 C 53.046875 80.714844 78.9375 54.640625 110.90625 54.640625 C 142.871094 54.640625 168.765625 80.535156 168.765625 112.5 C 168.765625 144.464844 142.691406 170.359375 110.90625 170.359375 Z M 110.90625 58.210938 C 80.902344 58.210938 56.617188 82.5 56.617188 112.5 C 56.617188 142.5 80.902344 166.789062 110.90625 166.789062 C 140.90625 166.789062 165.191406 142.5 165.191406 112.5 C 165.191406 82.5 140.726562 58.210938 110.90625 58.210938 Z M 110.90625 58.210938 " fill-opacity="1" fill-rule="nonzero"/></g><g clip-path="url(#3c8d231307)"><path fill="#fefefe" d="M 91.765625 143.492188 C 91.382812 143.492188 91 143.410156 90.644531 143.238281 C 89.75 142.804688 89.179688 141.902344 89.179688 140.910156 L 89.179688 133.15625 C 84.710938 133.15625 76.261719 130.457031 76.261719 120.238281 L 76.261719 94.398438 C 76.261719 89.929688 78.960938 81.476562 89.179688 81.476562 L 135.691406 81.476562 C 140.160156 81.476562 148.609375 84.179688 148.609375 94.398438 L 148.609375 120.238281 C 148.609375 124.707031 146.449219 133.15625 138.273438 133.15625 L 105.589844 133.15625 L 93.378906 142.925781 C 92.910156 143.300781 92.339844 143.492188 91.765625 143.492188 Z M 91.765625 127.988281 C 93.191406 127.988281 94.347656 129.144531 94.347656 130.574219 L 94.347656 135.53125 L 103.070312 128.554688 C 103.527344 128.1875 104.097656 127.988281 104.683594 127.988281 L 138.273438 127.988281 C 143.335938 127.988281 143.441406 120.546875 143.441406 120.230469 L 143.441406 94.398438 C 143.441406 87.105469 136.972656 86.660156 135.675781 86.644531 L 89.179688 86.644531 C 81.886719 86.644531 81.445312 93.113281 81.429688 94.410156 L 81.429688 120.238281 C 81.429688 127.53125 87.894531 127.972656 89.191406 127.988281 Z M 117.605469 107.316406 C 117.605469 104.460938 115.292969 102.148438 112.4375 102.148438 C 109.582031 102.148438 107.269531 104.460938 107.269531 107.316406 C 107.269531 110.171875 109.582031 112.484375 112.4375 112.484375 C 115.292969 112.484375 117.605469 110.171875 117.605469 107.316406 Z M 102.101562 107.316406 C 102.101562 104.460938 99.789062 102.148438 96.933594 102.148438 C 94.078125 102.148438 91.765625 104.460938 91.765625 107.316406 C 91.765625 110.171875 94.078125 112.484375 96.933594 112.484375 C 99.789062 112.484375 102.101562 110.171875 102.101562 107.316406 Z M 133.105469 107.316406 C 133.105469 104.460938 130.792969 102.148438 127.941406 102.148438 C 125.085938 102.148438 122.773438 104.460938 122.773438 107.316406 C 122.773438 110.171875 125.085938 112.484375 127.941406 112.484375 C 130.792969 112.484375 133.105469 110.171875 133.105469 107.316406 Z M 133.105469 107.316406 " fill-opacity="1" fill-rule="nonzero"/></g></svg>